<svg xmlns="http://www.w3.org/2000/svg" viewBox="0 0 279.68 279.68"><defs><clipPath id="a"><path style="fill:none" d="M0 0h279.55v279.55H0z"/></clipPath></defs><g style="clip-path:url(#a)"><path style="fill:#e6e6d9" d="M-18.01-9.3h310.56v298.13H-18.01z"/><path style="fill:#e2a97b" d="M13.27-1.49h252.45v364.14H13.27z"/><path d="M11.11 301.94c6.68 1.48 13.02-4.65 14.75-11.27 1.73-6.62.28-13.59-.32-20.41-.81-9.24-.02-18.63 2.33-27.6 2.48-9.48 6.65-18.43 9.83-27.7 12.1-35.32 9.32-73.7 11.35-110.98.39-7.23.99-14.51 2.96-21.48 2.21-7.78 6.09-14.98 10.28-21.9 4.74-7.85 9.99-15.55 16.92-21.56 6.93-6.02 15.74-10.27 24.91-10.22 14.64-10.26 35.94-5.98 52.73.15 22.08 8.06 44.2 20.71 54.7 41.74 11.68 23.39 6.49 51.69 13.75 76.81 5.21 18.03 16.66 33.75 21.98 51.75 6.61 22.34 3.27 46.48-3.1 68.89 10.86 1.22 23.7 3.85 27.87 13.96 1.39 3.37 1.53 7.1 1.66 10.74.24 6.82.48 13.65.71 20.47V-29.31H5.7v342.62h.64c.02-1.53.03-3.06.05-4.6.03-2.76 2.02-7.37 4.72-6.77Z" style="fill:#e6e6d9"/><path d="M124.16 41.27c.05.8.11 1.64.56 2.3.7 1.01 2.09 1.26 3.31 1.21s2.48-.32 3.67 0c.47.13.93.35 1.41.31.42-.04.8-.27 1.14-.52 3.11-2.34 3.93-6.65 3.93-10.54 0-6.31-1.62-16.08-8.95-17.19-6.22-.94-5.32 4.39-5.5 9.25s.13 10.13.42 15.18Z" style="fill:#fff"/><path d="M105.38 80.82c-2.13 1.29-3.27 3.74-5.2 5.32-1.44 1.18-3.23 1.8-4.99 2.41-3.91 1.34-7.85 2.69-11.95 3.2-3.9.48-7.86.19-11.75.77s-7.88 2.25-9.94 5.59c-2.77 4.49-.99 10.77 2.97 14.26s9.51 4.61 14.79 4.54 10.48-1.21 15.73-1.66c15.27-1.3 31.47 3.1 45.52-3.01 2.92-1.27 5.63-2.96 8.55-4.23 9.89-4.33 21.16-3.6 31.92-2.79l6.12.46c2.09.16 4.27.3 6.2-.52 3.62-1.55 5.11-6.31 3.81-10.03s-4.76-6.35-8.48-7.63-7.73-1.42-11.66-1.55l-26.07-.84c-3.37-.11-7.15-.4-9.34-2.96-1.36-1.59-1.83-3.79-3.15-5.42-1.79-2.2-5.23-2.65-7.72-1.48-3.35 1.57-2.91 4.92-5.24 7.32-6.07 6.24-12.89-6.09-20.1-1.73ZM121.59 127.4c1.01.85 2.94.42 3.47 1.64.18.4.11.88.27 1.29.38.97 1.67 1.08 2.7 1.27 1.58.29 3.05 1.17 4.05 2.43.56.71 1.24 1.63 2.12 1.41.64-.16.95-.87 1.15-1.49.6-1.8 1.09-3.78.43-5.55s-2.95-3.03-4.52-1.98c.67-1.88-1.47-3.61-3.43-3.98-1.88-.35-4.29-1.02-5.74.3-1.02.93-1.66 3.68-.49 4.66ZM90.27 141.87c-2.33.16-4.55 1.55-5.71 3.57-.56.97-.85 2.26-.18 3.15.48.64 1.31.88 2.09 1.04 3.59.75 7.63.54 10.48-1.76.64-.52 1.22-1.14 1.97-1.5 1.24-.6 2.73-.37 4.02-.87 1.42-.55 2.38-1.93 2.82-3.38 1.51-5.05-1.39-7.84-6.46-6.11-4.35 1.49-4.08 5.51-9.03 5.85ZM112.37 160.42c-.65-1.61-2.26-2.69-3.94-3.14s-3.45-.38-5.19-.31c-1.13.05-2.38.15-3.14.99-.65.72-.74 1.78-.79 2.75l-.21 3.99c-.05.9-.06 1.91.52 2.6.36.43.9.66 1.43.86 1.74.67 3.89 1.11 5.33-.08.62-.51 1.02-1.28 1.7-1.71.66-.42 1.49-.47 2.23-.75 2.19-.81 3.11-3.92 1.72-5.79M94.15 175.73c-.73 1.29-2 2.27-3.44 2.63-.9.23-2.01.33-2.41 1.17-.18.37-.17.81-.12 1.23.29 2.71 1.71 5.27 3.85 6.96a7.536 7.536 0 0 1 5.12-2.51c1.95-.12 4.09.5 5.77-.51 1.37-.83 1.97-2.55 1.9-4.15-.29-6.21-6.76-11.71-10.65-4.82ZM142.27 189.41c-2.75-.36-5.64-.69-8.2.38s-4.5 4.11-3.38 6.65c1.05 2.39 4.07 3.11 6.68 3.2 2.28.08 4.64-.12 6.63-1.23s3.49-3.33 3.19-5.58-2.88-4.09-4.96-3.19" style="fill:#f6ddc2"/><path d="M108.39 175.96c-.49.36-1.03.79-1.09 1.39-.1 1.06 1.23 1.59 2.28 1.77l9.06 1.59c7.19 1.26 14.5 2.52 21.76 1.8 6.63-.66 15.21-3.43 18.85-9.44-7.07-2.41-15.16-5.56-22.64-6.5-11.1-1.39-19.48 3.11-28.23 9.39Z" style="fill:#be7e7e"/><path d="M128.16 32.66c.15 2.65.18 5.61-1.61 7.56-1.85 2.01-4.92 2.17-7.66 2.18l-15.32.07c1.36 1.85-.2 4.49-2.09 5.78s-4.26 2.16-5.38 4.16c-1.1 1.97-.67 4.55-1.84 6.48-1.57 2.59-5.15 2.87-7.74 4.44-3.18 1.92-4.66 5.66-6.82 8.68-2.44 3.42-5.87 6.03-8.48 9.33-8.05 10.12-7.18 24.45-5.9 37.32-4.82-4.08-12.86-.26-15.27 5.57s-.97 12.47.5 18.61l3.16 13.21c1.22 5.12 2.58 10.48 6.18 14.32s10.23 5.36 14.11 1.81c5.25 11.4 13.55 21.38 23.81 28.62 1.23.87 2.52 1.72 3.45 2.91.88 1.13 1.39 2.49 1.85 3.85 4.55 13.38 5.32 28.03 2.2 41.81-1.09 4.79-2.71 9.62-5.96 13.31-3.54 4.02-8.62 6.28-13.54 8.41-14.45 6.27-29 12.58-44.36 16.06-2.53.57-5.14 1.09-7.37 2.41-2.75 1.62-5.19 4.5-8.37 4.2-3.08-8.79-6.18-17.67-7.17-26.93-2.67-24.98 10.13-48.71 15.21-73.31 2.32-11.23 3.02-22.72 3.72-34.16l3.02-49.66c.74-12.15 1.52-24.5 5.75-35.91 2.81-7.59 7.09-14.57 12.02-20.99 9.7-12.64 22.4-23.25 37.01-29.73 7.25-3.22 14.98-5.39 22.89-6.17 2.63-.26 7.29-1.39 9.03 1.12 1.9 2.74.78 11.29.96 14.65Z" style="fill:#f9d190"/><path d="M69.3 201.35c2.63 2.98 5.82 5.41 9.02 7.78 2.46 1.83 5.26 3.72 8.3 3.4 2.43-.26 4.53-1.96 5.87-4s2.05-4.43 2.74-6.78c.2-.69.38-1.52-.08-2.07-.26-.31-.67-.45-1.06-.53-1.34-.29-2.78-.1-3.99.53-1.84.95-3.08 2.81-4.91 3.77-2.46 1.3-5.6.7-7.89-.88s-3.87-3.99-5.18-6.45c-3.71-7-4.41-13.99-5.72-21.56-5.87-2.2-4.66 8.33-4.24 11.22.84 5.73 3.3 11.24 7.14 15.59Z" style="fill:#be7e7e"/><path d="M134.31 44.13c12.73-1.11 25.27 4.85 34.82 13.35s16.58 19.4 23.5 30.15c1.29 2 2.59 4.03 3.3 6.3 2.08 6.62-1.19 13.84-.12 20.7l12.26-3.03c2.01 3.74 7.73 5.25 8.05 9.49.16 2.06-1.12 3.91-2.09 5.73-3.19 5.95-3.45 12.96-4.61 19.61-1.15 6.65-3.74 13.74-9.63 17.03-1.87 1.04-3.99 1.64-5.76 2.85-4.54 3.09-5.68 9.13-7.11 14.43-1.47 5.44-3.86 11-8.5 14.19-1.02.7-2.17 1.3-2.86 2.33-.51.75-.73 1.65-.92 2.54-2.96 13.54-1.59 28 3.87 40.74 3.32 7.75 8.5 15.2 16.19 18.65 4.02 1.8 8.45 2.4 12.81 2.98l39.33 5.2c2.49-15.67 7.94-30.94 8.19-46.81.47-29.74-17.15-56.59-23.15-85.73-5.21-25.27-1.91-53.07-14.79-75.43-8.28-14.38-22.44-24.63-37.68-31.17-12.68-5.45-26.4-8.88-39.95-11.34-6.17-1.12-9.5-.64-8.57 6.29.23 1.76 3.25 20.99 3.44 20.97Z" style="fill:#a8907d"/><path d="M201.59 173.92c.77 3.72.03 7.58-.95 11.25-.87 3.26-1.98 6.55-4.09 9.19s-5.42 4.53-8.77 4.15c-1.92-.22-3.69-1.14-5.33-2.17-2.2-1.38-5.38-2.87-7.02-.85-.98 1.2-.62 3.08.37 4.26s2.47 1.84 3.89 2.46c5.49 2.39 11.61 4.81 17.3 2.93 4.51-1.49 7.82-5.53 9.54-9.95 1.72-4.43 2.05-9.25 2.24-14 .14-3.66.21-7.38-.72-10.92-1.28-4.9-4.69-10.27-10.35-8.01.23 4.08 3.07 7.67 3.9 11.68Z" style="fill:#be7e7e"/><path d="M96.42 121.8c-1.31-.44-2.63-.85-4.01-.98-4.08-.38-7.95 1.7-11.52 3.71-.84.47-1.74 1.01-2.06 1.92-.32.91.05 1.95.71 2.65s1.56 1.12 2.45 1.49c6.13 2.5 13.08 2.91 19.46 1.16 2.64-.73 6.63-2.55 4.42-5.67-1.62-2.28-6.93-3.42-9.46-4.27ZM165.35 112.99c-1.31-.27-2.68-.54-3.96-.18-.51.14-.99.38-1.46.63-3.07 1.59-6.24 3.71-7.26 7.01-.06.2-.12.42-.04.62.12.32.51.44.84.52 5.76 1.32 11.83 2.64 17.52 1.02 2.29-.65 4.44-1.77 6.29-3.27 1.09-.88 2.13-2.44 1.29-3.57-.46-.62-1.3-.78-2.06-.9-3.47-.54-7.69-1.89-11.16-1.89ZM67.13 179.64l-.05-1.75c-1.39.04-2.9-.81-4.07-.08-.78.49-1.05 1.49-1.17 2.4-.2 1.48-.12 3.17.98 4.18.88.82 2.28.95 3.38.46s1.9-1.53 2.27-2.67c.49-1.52-.06-3.62-1.64-3.9M207.51 193.35c-.54-1.23-2.02-1.71-3.36-1.82-1.32-.1-2.8.09-3.67 1.09-1.13 1.3-.61 3.51.77 4.54s3.31 1.05 4.94.49c.78-.27 1.55-.69 1.97-1.39.61-1.04.26-2.42-.51-3.34s-1.87-1.49-2.94-2.03M123.56 169.31c-1.1.2-2.24.46-3.12 1.15s-1.41 1.94-.97 2.97c2.97-.6 6.03-.45 9.03-.81 2.45-.29 5.43-.94 7.14-2.82-1.43-2.53-9.59-.95-12.09-.5Z" style="fill:#f1f2f2"/><path d="M25.82 297.42c-1.11-1.1-2.04-.35-2.99.28l.02.02c.4-.35.74-.81 1.2-1.03.64-.31.73-.68.49-1.29-.45-1.14-.9-2.27-1.27-3.44-.2-.65-.56-.84-1.18-.81-2.33.1-4.67.18-7 .27-.34.01-.69.03-1.04-.09 2.75-.72 5.55-.98 8.53-.91-.08-.39-.11-.69-.19-.98-.89-3.21-1.83-6.42-2.68-9.65-.26-1-.32-2.06-.43-3.09-.08-.73-.43-.97-1.15-.88-.75.1-1.5.16-2.26.16-.51 0-1.03-.11-1.54-.17v-.32c1.51-.15 3.03-.29 4.62-.45-.29-2.25-.56-4.38-.83-6.51-.18-1.39-.41-2.78-.49-4.17-.03-.6.35-1.21.39-1.82.11-2.04.15-4.09.23-6.14.03-.75-.3-.92-1-.79-.8.15-1.62.18-2.43.26l-.16-.27c.21-.16.4-.41.63-.45 2.86-.49 2.87-.48 2.97-3.29.04-1.12 0-2.23 0-3.35h.34v5.85h.29c.96-4.49.95-9.05.81-13.62l-.38-.05-.75 6.97-.24-.02.56-7.25h-4.02c.39-.25.56-.43.75-.47.53-.1 1.07-.22 1.6-.2 1.28.03 2.29-.19 2.2-1.8 0-.1.16-.21.38-.51.16.45.24.76.38 1.04.15.3.35.57.53.86.29-.25.77-.45.85-.76.37-1.39.65-2.8.93-4.21.74-3.59 1.46-7.17 2.19-10.76.03-.17 0-.35 0-.73-3.07.34-6.1.68-9.13 1.02l-.12-.39c.2-.11.39-.29.59-.32 2.63-.37 5.26-.71 7.89-1.06.62-.08 1.14-.16 1.39-.91 1.52-4.6 3.08-9.19 4.63-13.78.09-.26.11-.54.18-.93-4.76-.7-9.44-.44-14.11-.02l-.03-.29c1.34-.16 2.68-.42 4.02-.45 3.09-.08 6.18-.06 9.26-.05.77 0 1.34-.15 1.49-1.03.72-4.32 1.46-8.64 2.18-12.95.03-.17-.02-.35-.05-.7-5.59.4-11.16.81-16.75.51l-.03-.28c.21-.05.43-.14.64-.15 3.99-.15 7.97-.28 11.96-.46 1.25-.05 2.51-.19 3.75-.38.27-.04.65-.43.71-.71.28-1.48.46-2.97.68-4.46.87.12.86.12.58 1.43-.13.62-.19 1.26-.28 1.89l.35.05c.19-1.53.51-3.07.54-4.6.05-2.23-.12-4.46-.19-6.68-.02-.72-.46-.87-1.08-.87H21.8c-1.54 0-3.09.02-4.63 0-.22 0-.44-.08-.68-.35.2-.07.4-.19.6-.2 3.92-.12 7.83-.25 11.75-.33 1.54-.03 3.1-.02 4.64.09 1 .07 1.29-.33 1.19-1.22-.05-.43-.08-.86-.13-1.28l.5 2.44.3-.02c-.11-4.48.24-8.96-.36-13.43l-.45-.05-1.16 5.95c-.13-1.72.12-4.14.88-6.5.11-.33.49-.57.75-.85.21.29.43.56.61.87.1.18.12.41.17.63.08-.07.17-.11.17-.15.04-2.45-.03-2.55-2.52-2.29-5.21.53-10.4.36-15.58-.37-.32-.04-.63-.14-.92-.42 6.27.59 12.51.76 18.88-.22v-7.69h.27l.35 10.2h.29c.12-4.48.67-8.95-.56-13.41v2.53h-.29v-4.94c-6.28-.19-12.44-.38-18.6-.57v-.52c1.28 0 2.57-.02 3.86 0 3.27.07 6.53.17 9.8.25 1.33.03 2.66.06 3.99.07.57 0 .9-.22.91-.91.08-3.73.2-7.46.34-11.19.03-.87-.57-.81-1.08-.81-2.55-.02-5.11.05-7.66-.02-3.05-.08-6.1-.26-9.15-.42-.25-.01-.49-.13-.7-.45.26-.03.52-.08.77-.07 4.74.1 9.48.22 14.22.32.83.02 1.66-.01 2.48.04.85.06 1.19-.26 1.29-1.13.32-2.85.67-5.7 1.12-8.53.23-1.45.68-2.86 1.05-4.29.7-2.71.37-3.12-2.35-3.13-4.92-.01-9.84-.04-14.75-.12-1.14-.02-2.28-.28-3.38-.66h3.23c3.59.03 7.19.07 10.78.1 1.8.02 3.6.06 5.39.08 1.28.01 1.28-.09 1.32-1.33.16-4.56.34-9.12.62-13.67.06-1.05-.22-1.33-1.19-1.32-2.52.03-5.05.17-7.55-.05-3.79-.33-7.55-.92-11.32-1.42-.28-.04-.54-.19-.82-.29l.05-.3c.4.02.81 0 1.2.07 5.07.93 10.19 1.38 15.34 1.36 2.05 0 4.09-.06 6.14-.03.63 0 .83-.29.9-.8.19-1.45.35-2.91.54-4.36.57-4.22 1.12-8.45 1.76-12.66.15-.97-.18-1.1-.99-1.1-4.67 0-9.34.09-14-.06-3.29-.11-6.58-.54-9.87-.84-.23-.02-.45-.14-.67-.21l.03-.3 2.1.15c2.83.19 5.66.47 8.49.53 4.64.09 9.27 0 13.91.07 1.1.02 1.37-.45 1.61-1.38.97-3.78 2.02-7.54 3.06-11.3.1-.38.38-.7.57-1.05l.33.08c0 .46.07.92-.01 1.36-.61 3.24-1.25 6.47-1.9 9.77 1.59-.47 1.6-1.91 1.97-2.99 1.42-4.18 2.69-8.41 4-12.63.06-.19.06-.41.09-.66-5.69 0-11.32.04-16.95-.01-5.59-.05-11.2.07-16.78-.36v-.36c.29-.03.59-.09.88-.09 5.61.07 11.21.14 16.82.22 3.38.05 6.75.19 10.13.17 1.83-.01 3.66-.23 5.48-.45.35-.04.82-.54.93-.91.98-3.53 1.88-7.08 2.82-10.62.19-.71.42-1.42.63-2.13l.41.08c-.08.54-.11 1.1-.25 1.63-.94 3.46-1.91 6.92-2.86 10.38-.02.09.02.19.04.36l6.38-12.63c-.46.35-.69.6-.98.72-.27.11-.6.06-.91.08l-.11-.29 3.88-3.27c-14.47-.21-28.67 1.01-42.83-.5v-.3c1.17 0 2.34-.03 3.52 0 3.95.12 7.9.36 11.85.37 6.18 0 12.36-.17 18.54-.23 2.01-.02 4.03.07 6.04.05.89-.01 1.82-.07 2.66-.32.63-.19 1.2-.68 1.73-1.12.72-.59 1.07-1.68 2.45-1.27.4.12 1.24-.69 1.63-1.25.86-1.23 1.52-2.6 2.33-3.87.48-.75 1.09-1.43 1.64-2.13l.3.23-1.61 2.09.15.18c.2-.09.4-.17.58-.28 2.95-1.63 6.05-3.06 8.81-4.96 2.94-2.02 6.31-3.04 9.39-4.69 1.33-.71 2.71-1.34 4.07-2.11-3.28.55-6.58 1.04-9.85 1.68-4.26.83-8.57.71-12.87.95-3.57.2-7.14.65-10.68 1.21-5.65.89-11.29 1.77-17 2.03-7.14.33-14.29.68-21.43 1.02-.66.03-1.32.12-1.98.18l-.06-.39c.76-.11 1.51-.27 2.28-.31 7.25-.39 14.52-.6 21.75-1.18 5.15-.41 10.27-1.24 15.38-2.03 4.98-.77 9.99-1.13 15.02-1.38 3.65-.18 7.3-.62 10.92-1.11 3.91-.54 7.8-1.25 11.69-1.94 1.8-.32 3.57-.82 5.36-1.17 2.07-.4 4.22-1.19 6.23-.94 1.94.24 3.51-.54 5.26-.72.33-.03.63-.23.95-.35l-.08-.32-3.37.58-.03-.12c1.7-.41 3.39-.83 5.09-1.21 1.5-.34 3.02-.64 4.52-.96.88-.19 1.79-.65 2.22.76.1.33.87.47 1.52.79l.89-1.4-1.07-.18c1.13-.95 3.01-.99 3.42-.14-2.22.37-2.83 1.73-1.9 3.83.56 1.27.82 2.59.14 4.03-.37.78-.16 1.82-.21 2.86 1.2-.28 1.13.27.88 1.06-.28.88-.43 1.79-.66 2.69-.05.21-.19.4-.28.61-.07.16-.21.36-.18.5.44 1.65.92 3.29 1.38 4.93l.31-.05-.33-6.71.42-.07c.08.26.22.51.24.77.22 4.48.41 8.96.66 13.44.07 1.21.36 2.4.44 3.61.06.92-.27 1.07-1.08.71-.23-.1-.55-.08-.81-.01-.96.23-1.9.51-2.82 1.02 1.86-.21 3.72-.41 5.57-.65.78-.1 1.78-.07 2.25-.53.44-.43.25-1.45.44-2.19.33-1.31.78-2.59 1.09-3.9.1-.41 0-.95-.19-1.32-1.25-2.35-1.91-4.86-2.3-7.47-.13-.89.07-2-1.28-2.27-.14-.03-.28-.49-.27-.74.08-1.76.2-3.51.31-5.26.16-2.47.35-4.94.48-7.41.04-.81.26-1.18 1.18-1.25 1.81-.15 3.45.36 5.13.86 3.06.92 6.14 1.73 9.22 2.58.2.06.46.16.62.08 2.39-1.16 4.93-.82 7.39-.6 5.82.52 11.58 1.63 17.47 1.46 2.83-.08 5.67.32 8.5.41 2.62.08 5.24.03 7.85.06 3.38.04 6.75.07 10.12.18 5.28.16 10.56.48 15.84.54 5.42.06 10.85-.02 16.27-.23 4.88-.19 9.75-.73 14.63-.99 7.04-.37 14.08-.63 21.12-.94v.86c-4.27.21-8.54.4-12.81.62-6.39.34-12.77.68-19.15 1.07-6.52.4-13.04.79-19.55 1.35-3.39.29-6.75.92-10.12 1.42-1.92.28-3.82.7-5.75.9-3.54.37-7.08.68-10.63.92-2.9.19-5.81.25-8.71.33-.38.01-.76-.19-1.14-.29 6.35-.65 12.66-.86 18.94-1.51 6.31-.66 12.57-1.76 18.86-2.67-.3-.15-.58-.14-.87-.15-4.56-.15-9.12-.31-13.68-.45-3.59-.12-7.18-.26-10.78-.31-1.79-.03-3.59.22-5.38.17-4.88-.14-9.76-.36-14.64-.58-3.05-.13-6.11-.15-9.13-.52-3.5-.42-6.97-.99-10.51-.73-.6.04-1.19.15-1.79.22 2.59.82 5.17 1.42 7.75 2.06 2.54.63 5.02 1.44 7.44 2.4l-.08.35h-1.26l-.04.17 3.57 1.26c.13-1.04.67-.79 1.25-.58 5.32 1.97 10.64 3.95 15.98 5.87.75.27 1.55.87 2.44.22.11-.08.46.11.67.22 2.82 1.5 5.63 3.01 8.44 4.52.28.15.79.42.76.52-.32 1.24.85 1.28 1.4 1.75 1.37 1.16 2.84 2.2 4.23 3.34 1.25 1.02 2.43 2.12 3.65 3.19-.15-.6-.43-1.1-.7-1.59-.25-.46-.49-.93-.74-1.4l.36-.2c4.71 5.88 8.34 12.47 12.12 18.96l.29-.16c-.85-1.9-1.7-3.79-2.55-5.69l.26-.15c.31.42.71.8.91 1.27 1.42 3.35 3.01 6.62 4.23 10.07 1.32 3.71 3.01 7.29 4.45 10.97.35.9.85 1.22 1.72 1.2 2.08-.04 4.16-.09 6.24-.08 4.49.03 8.98.23 13.46.13 6.85-.15 13.7-.49 20.55-.75v.65c-.9 0-1.8-.04-2.69 0-3.87.21-7.74.5-11.61.66-4.01.17-8.03.26-12.04.3-4.2.05-8.4 0-12.6-.02-1.56 0-2.03.47-1.62 1.92 1.09 3.83 2.23 7.64 2.7 11.62.09.76.36 1.5.52 2.17 1.65 0 3.11.06 4.57-.01 2.9-.14 5.81-.36 8.71-.52.31-.02.63.2.95.3l-.12.34c-1.46.13-2.93.34-4.39.38-3.15.1-6.3.09-9.45.17-.72.02-.83-.33-.92-.88-.25-1.6-.43-3.21-.81-4.77-.71-2.89-1.52-5.76-2.32-8.62-.34-1.2-.76-2.38-1.14-3.57.8 4.14 1.82 8.21 2.7 12.31 1.24 5.82 2.43 11.66 3.54 17.51.47 2.46.78 2.72 3.31 2.63 5.31-.19 10.62-.42 15.93-.34 5.6.09 11.19.52 16.78.8v.65c-6.21-.3-12.41-.75-18.62-.86-4.66-.08-9.34.27-14 .44-.91.03-1.82.14-2.84.23l1.2 6.33c-1.99-4.51-1.87-9.49-3.27-14.14-.03.39-.04.79.02 1.17.68 4.62 1.36 9.24 2.08 13.85.42 2.73.89 5.45 1.4 8.17.07.37.44.95.72.98 1.35.15 2.73.27 4.08.17 5.06-.37 10.11-.64 15.16.08.89.13 1.78.27 2.67.32 3.8.2 7.61.36 11.41.53v.43c-4.26-.15-8.53-.17-12.78-.5-5.06-.38-10.1-.54-15.17-.19-1.88.13-3.77.02-5.68.02-.02.42-.06.6-.03.77.43 2.69.9 5.37 1.28 8.06.24 1.66.13 3.4.54 5 1.1 4.27 2.39 8.49 3.63 12.73.26.87.63 1.71.95 2.58l.81-.59.38.12c-.06.63-.06 1.28-.18 1.9-.13.66.31 1.4 1.03 1.42 2.19.06 4.39.21 6.57.09 4.3-.23 8.59-.61 12.89-.94l5.78-.45v.65c-3.43.25-6.86.51-10.28.75-3.32.23-6.65.5-9.98.67-1.78.09-3.56.02-5.49.02.22.69.39 1.3.61 1.9.47 1.28.98 2.54 1.44 3.83 1.22 3.41 2.44 6.82 3.61 10.25.32.93.81 1.32 1.8 1.24 3-.24 6.03-.29 9-.69 3.12-.42 6.2-1.16 9.29-1.77v.65c-6.24 1.27-12.5 2.48-18.86 2.63.38.57.73.92.88 1.35.87 2.6 1.69 5.21 2.53 7.82l.15-.03-.5-.75c.66 2.72 1.53 5.36 2.45 7.97.06.17.52.29.79.27 1.71-.1 3.43-.29 5.14-.38 2.47-.13 4.94-.22 7.42-.32v.65c-4.31.17-8.65.07-12.95 1.22.08.39.11.71.21 1 1.66 4.92 2.56 10 3 15.16.21 2.49.17 2.4 2.66 2.16 2.34-.23 4.71-.22 7.07-.32v.43c-1.14.07-2.28.11-3.42.21-2.02.18-4.04.39-6.11.6.65 6.81 1.28 13.42 1.9 20 2.56-.17 5.09-.34 7.63-.51v.43c-2.31.3-4.62.62-6.94.88-.7.08-.87.42-.9 1.05-.07 1.58-.18 3.15-.31 4.73-.03.34-.21.66-.32.99l-.45-.04v-5.59h-.36c-.88 4.07-1.76 8.15-2.68 12.47 1.02-1.01.61-2.55 1.71-3.2l.33.14c-.22.79-.45 1.58-.73 2.58 1.14.15 2.17.46 3.16.39 2.5-.17 4.99-.52 7.49-.79v.65c-.28.04-.57.09-.85.12-3.13.4-6.26.79-9.38 1.18-.78.1-1.27.37-1.44 1.27-.38 1.97-.96 3.89-1.33 5.86-.37 2-.58 4.03-.89 6.26.99 0 1.8.03 2.61 0 3.76-.14 7.52-.29 11.29-.44v.65c-4.12.22-8.23.44-12.35.67-.71.04-1.44.08-2.12.27-.51.15-1.18.43-1.38.85-.46.94-.67 2-1.04 3.2 4.67 1.27 9.37 2.54 14.07 3.82l-.07.29c-1.61-.32-3.22-.65-4.83-.97l-.03.16c2.59.98 5.17 1.96 7.76 2.94v.65c-2.97-1.07-5.91-2.21-8.91-3.19-2.69-.88-5.45-1.59-8.18-2.36-.56-.16-1.11-.28-1.46.45-.11.22-.49.31-.92.57.14-1.74-1.11-1.73-2.05-1.89-4.67-.8-9.34-1.62-14.03-2.25-3.02-.41-6.08-.53-9.13-.75-2.65-.19-5.35-.09-7.95-.54-3.93-.68-7.8-1.67-11.68-2.63-1.27-.31-2.47-.95-3.72-1.39-.44-.15-.93-.13-1.36-.18-.3-.21-.6-.48-.95-.65-1.12-.56-2.39-.92-3.37-1.65-1.25-.93-2.28-2.15-3.44-3.29.2.58.39 1.22.64 1.84.47 1.18.36 1.37-.97 1.35.36 1.26.72 2.5 1.08 3.74l-.33.15c-.15-.23-.35-.44-.46-.69-.64-1.52-1.22-3.06-1.9-4.57-.24-.53-.71-.95-1.01-1.46-.19-.31-.24-.7-.37-1.05-.13-.36-.29-.72-.53-1.3l-.45 1.3-.3-.05.3-2.53-.26-.05-.26.54c-1.25-2.7-2.51-5.44-3.77-8.19l-.32-.03c-.75 2.01-1.51 4.02-2.26 6.03l.16.08c.49-.94.96-1.9 1.5-2.82.14-.24.48-.37.74-.55 0 .32.12.68 0 .95-.95 2.22-1.99 4.4-2.88 6.64-.25.64-.11 1.44-.14 2.16 0 .19.06.41 0 .57-.71 1.67-1.46 3.34-2.17 5.01-.28.67-.33 1.47-1.32 1.61-.23.03-.42.54-.58.85-.64 1.26-1.25 2.52-1.89 3.78-.05.09-.23.12-.5.24l1.18-4.88-.5-.22-1.66 2.28.28.24 1.09-.63-1.1 2.23-.67-1.3c-.7 1.4-1.29 2.64-1.94 3.84-.18.33-.54.55-.82.83-.17-.34-.52-.7-.49-1.02.19-2.35.39-4.71.7-7.05.28-2.09.69-4.17 1.06-6.32-.95-.17-1.09-.87-.99-1.61.23-1.67.55-3.32.78-4.99.57-4.12 1.11-8.24 1.66-12.36.02-.13-.03-.26-.22-.42-1.24 2.93-1.7 6.05-2.17 9.18l.68-1.22.19.08c-.03.2-.04.4-.11.58-.89 2.31-1.77 4.63-2.71 6.92-.11.27-.51.42-.78.62-.04-.32-.19-.68-.1-.97.69-2.33 1.45-4.65 2.12-6.99.42-1.48.72-3 1.07-4.51.06-.26.08-.53.12-.8l-.3-.16c-.95 1.43-1.88 2.88-2.87 4.29-.22.31-.73.75-.94.67-.73-.28-.38-.84-.03-1.2.73-.75.21-1.65.4-2.45.57-2.39 1.02-4.85 1.91-7.12.65-1.65.59-3.24.76-5.13-.73.74-1.3 1.32-1.86 1.9-.2.2-.37.5-.61.59-.54.21-1.11.32-1.67.47-.13-.53-.41-1.08-.36-1.59.14-1.37.43-2.72.66-4.12-1.94 1.13-3.88 2.27-5.81 3.4l-.24-.38c.47-.31.93-.62 1.4-.92 1.45-.92 2.94-1.8 4.34-2.78.42-.29.61-.9.9-1.37l-.27-.19-1.51 1.3-.2-.1c.09-.21.14-.47.29-.62.38-.38.83-.69 1.2-1.08.16-.18.17-.49.25-.74-.25-.02-.59-.14-.75-.03-1.7 1.23-3.4 2.45-5.03 3.76-1.05.85-2.01 1.82-2.94 2.81-.39.42-.59 1.02-.91 1.6-.66-.44-1.1.06-1.69.5-1.63 1.21-3.26 2.53-5.09 3.36-3.23 1.48-6.73 1.22-9.27-2.28l-1.4 1.83-.32-.16c.55-1.06 1.09-2.12 1.66-3.23.03 0 .36.02.53-.13.84-.76-.07-1.32-.29-2.35-2.25 2.56-4.33 4.92-6.41 7.28l-.2-.1c.14-.31.21-.67.42-.92 1.78-2.06 3.55-4.13 5.38-6.15.54-.6.51-1.03-.12-1.59-1.41.95-2.75 2.06-4.27 2.81-2.18 1.08-3.26 3.04-4.49 4.92-.23.35-.52.67-.78 1l-.38-.26 2.48-3.82-2.73-5.04c-.44.45-.74 1.01-1.06 1.02-.33.01-.68-.5-.95-.73l-.64 1.09-1.46-1.55c-1.25 1.51-1.16 1.95 1.18 5.16q-.43.19-2.02-1.7c-.82-.04-1.19.47-1.48 1.14-.43.99-.92 1.96-1.38 2.93l-.34-.14.67-1.96-.16-.11c-.69.86-1.38 1.71-2.07 2.57l-.27-.2c1.18-1.66 2.35-3.33 3.7-5.23-.5.05-.7 0-.79.08-.92.85-1.84 1.71-2.71 2.61-.18.18-.19.58-.17.88.07 1.06.02 1.14-1.17 1.38.85 6.77 1.39 13.6 2.58 20.34l.37-.04-.42-9.37-.16-.03-.32.94v-7.37h.15l.35 2.37.18.04c.25-1.06.44-2.14.77-3.17.35-1.08.82-2.12 1.29-3.16.09-.21.49-.48.64-.42.25.1.52.4.59.66.13.51.13 1.06.15 1.34l2.67-3.23.28.2c-.12.23-.22.47-.36.68-.57.9-1.1 1.83-1.73 2.68-.28.37-.77.58-1.17.86-.13-.41-.29-.81-.38-1.22-.06-.29-.01-.6-.01-.9l-.26-.06c-.18.33-.4.64-.52.98-.78 2.26-1.69 4.46-1.41 6.97.54 4.93.95 9.87 1.42 14.8.03.29.12.57.42.82v-2.01h.2l.42 7.15-.35.04-1.79-11.22c.2 8.27.69 16.25 2.27 24.15l-.41.08-.57-2.27c-.18 1.27-.26 2.22-.46 3.15-.06.28-.42.49-.64.74-.16-.25-.42-.49-.45-.76-.44-3.56-.84-7.13-1.25-10.7-.19-1.69-.39-3.38-.8-5.09-.05.25-.08.51-.15.75-.2.71.02 1.62-.99 1.96-.19.06-.22.5-.39.72-.2.26-.47.46-.71.69-.21-.26-.56-.51-.6-.79-.16-1.1-.28-2.21-.32-3.32-.11-3.32 0-6.66-.74-9.94-.04-.17-.09-.34-.14-.53-.09.06-.16.09-.19.14-.28.4-.56.81-.84 1.21-.2-.48-.55-.94-.59-1.43-.21-2.68-.33-5.36-.65-8.06-.05.21-.05.44-.15.62-.15.28-.37.51-.56.77-.15-.28-.43-.57-.43-.85.03-2.4.12-4.81.19-7.21.01-.43 0-.86-.11-1.3-.46 1.83-1.41 3.56-1.02 5.56.07.37.04.79-.07 1.15-1.18 3.91-1.76 7.91-2.04 11.97-.27 3.91-.61 7.81-.89 11.71-.09 1.18-.09 2.36-.14 3.54-.01.22-.08.45-.12.67h-.36c0-2.08-.08-4.16.02-6.23.11-2.07.4-4.13.37-6.23-.25 1.77-.53 3.55-.75 5.32-.16 1.23-.35 1.52-1.36 1.58l.43-2.17-.28-.18c-.95 1.22-1.9 2.45-2.86 3.67-.78.99-1.33 2.09-2.8 2.48-.89.24-1.54 1.34-2.34 2.01-3.73 3.16-8.04 5.19-12.7 6.61-1.68.51-3.2 1.6-4.76 2.47-3.29 1.83-6.47 3.88-9.87 5.47-5.03 2.36-10.22 4.39-15.33 6.56-1.98.84-3.95 1.7-5.93 2.55-.55.24-1.11.46-1.74.72-.37-1.18.95-1.02 1.15-1.82-.89.34-1.7.69-2.53.96-.32.1-.69.03-1.04.03.18-.26.36-.53.56-.78.11-.13.27-.23.63-.53-.51 0-.81-.08-1.02.01-3.57 1.58-7.13 3.18-10.69 4.77-.41.18-.82.34-1.53.62.33-.68.51-1.07.7-1.45.34-.19.67-.4 1.01-.57 1.14-.56 2.28-1.1 3.42-1.65l-.12-.29c-.26.08-.52.14-.77.24-2.31.85-4.63 1.71-6.94 2.57l.02.03c2.45-1.09 4.89-2.2 7.35-3.26 1.05-.45 2.16-1.2 3.2-1.14 1.81.1 3.34-.53 4.79-1.27 4.85-2.47 9.61-5.12 14.42-7.68 2.25-1.2 4.53-2.34 6.8-3.5.47-.24.97-.45 1.05.4-11.11 5.3-18.28 9.57-19.88 11.91 1.83-.61 3.51-1.26 4.93-2.47.54-.46 1.15-.86 1.75-1.24 1.4-.87 2.82-1.71 4.24-2.55 1.02-.6 2.05-1.18 3.07-1.77l.14.25c-2.49 1.53-4.99 3.06-7.48 4.58l.14.24c.13-.04.26-.06.38-.12 5.04-2.4 9.73-5.41 14.35-8.52.53-.36 1.02-.77 1.47-1.22.36-.36.58-.87.97-1.19.43-.37.98-.6 1.47-.89 2.48-1.51 4.95-3.04 7.44-4.54.36-.22.81-.3 1.22-.44l.18.36c-2.61 1.67-5.25 3.3-7.83 5.03-2.59 1.74-5.08 3.65-7.69 5.36-2.64 1.73-5.32 3.4-8.07 4.94-2.72 1.53-5.56 2.86-8.34 4.28l.2.4c7.28-3.48 15.11-5.69 22.08-9.86-.37.01-.69.14-1 .28-2.38 1.08-4.76 2.17-7.15 3.23-.27.12-.63.04-.95.05.18-.27.29-.63.54-.79 1.58-1.04 3.18-2.07 4.81-3.05 1.54-.93 3.13-1.81 4.69-2.71l.14.23c-1.93 1.23-3.85 2.46-5.78 3.69.33.15.57.11.77.01 3.34-1.49 6.68-2.98 10.01-4.5 3.82-1.75 7.39-3.89 10.17-7.09.83-.95 1.77-1.7 2.74-2.44 2.14-1.63 4.27-3.29 6.49-4.81 1.04-.71 2.25-1.33 3.47-1.6 1.15-.26 2.05-.75 2.58-1.69.76-1.33 1.35-2.77 1.94-4.19.37-.87.61-1.79.91-2.68l-.22-.09-.9 1.86-.29-.12c.1-.36.16-.74.3-1.08 1.29-3.26 2.78-6.44 3.06-10.03.38-4.8 1.89-9.5 1.3-14.22l.38.66 1.27-1.2c-1.41-6.47-2.89-13.13-4.28-19.81-.32-1.56-.76-2.8-2.57-2.95-.1 0-.2-.08-.3-.12-2.6-1.02-5.2-2.05-7.77-3.06-.09.1-.17.15-.19.21-1.49 4.31-4.92 6.1-9.05 6.98-.31.07-.68.08-.96-.04-2.33-1.02-4.87-1.76-6.89-3.21-2.24-1.61-4.06-3.83-5.96-5.87-2.13-2.29-3.7-4.93-4.4-8.03-.69-3.05-1.42-6.08-2.08-9.13-.26-1.18-.36-2.4-.53-3.6l.42-.07c.1.6.06 1.29.35 1.79.27.46.88.73 1.44 1.16l.06 1.2c1.73-1.48.07-3.57 1.12-5.29.09.37.14.5.15.63.22 2.69.39 5.38.68 8.05.13 1.21.02 2.56 1.1 3.33-.07.49-.26.92-.17 1.27.62 2.4 1.65 4.59 3.54 6.28 3.87 3.47 8.67 4.98 13.52 6.37.41.12.85.12 1.27.17l-.08.36c-4.17.15-7.71-2.09-11.53-3.31 3.31 2.58 6.81 4.76 10.92 5.77.23.06.55.05.73-.07 1.33-.9 2.29-2.08 2.73-3.66.23-.82.38-1.76 1.72-1.99.07 2.12-1.56 3.37-2.36 5.22 1.5-1.23 2.57-2.47 3.19-4.05.24-.61.13-1.03-.52-1.41-1.29-.76-2.55-1.6-3.74-2.51-.76-.58-1.4-1.32-2.07-2-.27-.28-.45-.63-.73-.9-.2-.2-.5-.3-.75-.45l.2-.48c2.31.65 4.43 1.84 6.68 2.68 2.34.87 4.72 1.62 7.08 2.43l.13-.31c-.52-.26-1.03-.56-1.57-.77-1.1-.42-2.32-.62-3.31-1.21-1.66-.99-3.18-2.12-5.04-2.81-3.56-1.32-7.02-2.91-10.52-4.39-.26-.11-.48-.31-.72-.46l.16-.32c3.79 1.61 7.59 3.23 11.38 4.84l.18-.3c-1.29-1.58-2.66-3.09-3.85-4.74-1.36-1.88-2.61-3.85-3.8-5.84-.44-.74-.47-1.72-.86-2.51-1.08-2.23-2.26-4.4-3.37-6.61-.46-.92-1.3-1.92-1.2-2.79.17-1.45-.81-2.09-1.17-2.98-.82.43-1.5.79-2.18 1.15-.46.24-1.03.36-.83 1.14.04.15-.4.56-.68.65-1.2.35-2.42.67-3.65.92-.59.12-.77.34-.74.93.04 1.18.01 2.36.01 3.54-.73-.02-.95-.41-.85-1.17.11-.82.16-1.65.09-2.47-.03-.3-.42-.63-.72-.82-.09-.06-.57.28-.66.52-.23.63-.34 1.3-.51 1.95-.11.42-.26.83-.39 1.24-.25-1.32-.32-2.6-.23-3.87.06-.91-.31-1.23-1.14-1.31-.56-.06-1.17-.13-1.65-.4-3.35-1.89-5.63-4.44-5.65-8.6 0-1.38-.63-2.76-.99-4.13-.22-.86-.54-1.7-.7-2.58-.45-2.47-.81-4.96-1.27-7.43-.72-3.85-1.68-7.66-2.2-11.53-.34-2.57-.48-5.18-1.07-7.72-.33-1.41-.77-2.76-.51-4.29.38-2.28.77-4.52 2.1-6.47.27-.4.65-.77 1.07-1.02 1.09-.66 2.25-1.22 3.32-1.9.29-.19.57-.72.53-1.06-.46-4.32-.97-8.64-1.47-12.96-.03-.29-.11-.59-.16-.88-.4 1.6.22 3.29-.7 4.82-.21-.4-.31-.79-.31-1.19 0-1.65.03-3.3.01-4.95-.07-8.19-.59-16.4.86-24.54.29-1.63.24-3.33.57-4.95.42-2.03 1.08-4.01 1.64-6.01.03-.1.12-.17.2-.29l.73.26c1.71-4.34 2.39-9.03 4.97-13.22l.44.95c.27-.38.48-.66.69-.96 2.66-3.83 5.31-7.67 7.99-11.49.24-.34.75-.88.89-.82 1.04.47 1.33-.44 1.8-.91 1.66-1.64 3.19-3.43 4.92-4.98 5.32-4.77 11.53-8.15 17.93-11.21 1.89-.9 3.74-1.91 5.61-2.87l-.17-.44-9.7 3.12c.25-.24.56-.31.82-.46.69-.39 1.36-.81 2.04-1.22 1.02-.25 2.06-.46 3.07-.76 1.4-.41 2.78-.9 4.17-1.35l-.09-.27c-2.45.57-4.91 1.09-7.12 2.39-3.38 1.16-6.73 2.34-9.56 4.64-.86.7-1.87 1.21-2.75 1.89-2.05 1.56-4.02 3.24-6.12 4.74-2.88 2.07-5.98 3.84-8.22 6.71-2.61 3.34-5.96 6.15-7.27 10.4-.02.06-.13.1-.23.16l.06-.93-.26-.09c-2.43 3.93-5.32 7.61-6.35 12.29 3.25-2.84 4.34-6.99 6.38-10.57-.7 2.01-1.4 4.01-2.35 5.89-.87 1.72-1.96 3.33-3.03 4.93-.45.67-1.11 1.06-2.11.05-.85 2.64-1.67 5.03-2.38 7.46-.88 3.03-1.62 6.1-2.5 9.12-.47 1.61-1.34 3.14-1.6 4.77-.47 2.93-.6 5.92-.9 8.88-.04.41-.26.79-.4 1.19l-.45-.11.22-4.01-.38-.02c-.52 5.61-1.1 11.21-1.54 16.83-.43 5.41-.41 10.88-1.18 16.23-.36 2.54-.4 5.07-.7 7.59-.26 2.16-.79 4.3-.97 6.47-.2 2.43-.09 4.88-.18 7.33-.14 3.76-.29 7.53-.52 11.29-.07 1.18-.18 2.44-.66 3.48-.54 1.16-.43 2.27-.46 3.44-.07 3.19-.06 6.4-.4 9.57-.32 2.95-1.14 5.84-1.6 8.77-.57 3.57-1.01 7.17-1.48 10.75-.07.53.03 1.09-.09 1.61-1.04 4.4-2.01 8.83-3.2 13.19-2.03 7.5-4.11 14.99-6.35 22.43-.86 2.87-1.25 5.82-2.38 8.67-1.54 3.9-2.37 8.13-2.55 12.41-.05 1.26-.19 2.51-.35 3.76-.15 1.17.45 2.28-.03 3.54-.47 1.24-.56 2.67-.6 4.02-.11 3.19-.21 6.39-.08 9.58.07 1.76.61 3.49.95 5.24.51 2.62.87 5.29 1.58 7.86 1.12 4.09 2.83 8.01 3.79 12.15.02.11.2.18.31.26l-.03-.02-.36 1.8.05-.03Zm149.53-68.32-.64-1.22c-.57 1.99.47 3.57 1.03 5.36l1.55-1.05-.06-.41c-.96.81-1.29.2-1.48-.47-.2-.72-.28-1.48-.4-2.22l1.87.5q.03.97.61.9v2.72c.23-.07.5-.14.77-.22.25-.08.5-.17.76-.26.42 1.86.42 1.87 1.53 2.51l-.11.78 1.17.21-.25.8c-.74-.43-1.36-.79-1.97-1.15l-.21.29c.51.7 1.01 1.39 1.5 2.06l1.26-.64c1.2 1.57.39 2.91-.17 3.92.4.84.72 1.4.95 2 .32.81.66 1.52 1.76 1.22.2-.06.46.12.7.18l-.03.33-1.41.13c0 .47-.19 1.11.05 1.48.27.42.92.6 1.29.83-.14.28-.43.73-.37.78.28.24.65.38 1.02.57-.97.97.16 1.77.65 2.54.28.45.97 1.18 1.83.4l.74 1.43c.52-.16 1.25-.59 1.46-.42.59.5.97 1.26 1.45 1.92.71-.09 1.45-.19 2.23-.3 0 .25-.04.55 0 .57.97.32 1.95.61 2.56.79l1.38 2.18s-.56.24-1.91.55c.5.22.97.42 1.42.62l-.38.57.24.3c.38-.26 1.01-.46 1.09-.79.18-.74.57-.94 1.23-1.21.62-.26 1.06-.35 1.54-.04l-1.59 1.51c1.36.5 2.32.04 3.33-.61l-.07 1.29 1.14-.73.9.46.86-.99c.13.28.23.57.39.83.16.27.37.5.56.75l.09-.32c.46.02.91.05 1.36.07l-1.19 1.07 1.63.28-.46-1.33c.26.13.61.2.75.41.2.3.24.7.39 1.18l1.04-.74-.54-.86 1.19-.65 1.18.25-1.39.94.78.41-.85.42.31.45c.31-.08.75-.05.89-.24.69-.93 1.03-.97 1.98.17-.66.1-1.15.17-1.65.24.35.29.79.5 1.19.45.59-.08 1.16-.34 1.76-.53l-.41-.32.06-.17 1.08.32-.51.95c1.1.98 1.9.11 2.77-.34l.87.7-.31.45.21.26 1.14-.68c.4.13.85.42 1.04.3.33-.21.5-.67.73-1.03.3.17.56.43.8.42.94-.07 1.3.28 1.17 1.25l-.52-.27c-.06.12-.21.29-.17.36.1.16.26.36.42.39.52.1 1.05.14 1.56.2.18-1.02.36-1.12 1.21-.84l-.48 1.03c1.45.12 2.73.22 4.26.35l-1.13-1.32c1.06.07 2.04.13 3.07.19.19.82.96 1.5 1.37 1.04.7-.8 1.41-.22 2.1-.3.57-.07 1.16.08 1.88.14-.32.35-.66.71-.99 1.06-1.28-1-1.44-1-2.47.06 2.86.73 5.84.23 8.6 1.3-.34-.32-.73-.44-1.1-.61-.92-.4-1.84-.79-2.72-1.25-.16-.08-.16-.48-.23-.73.24.01.51-.04.72.05.99.41 1.93 1.05 2.96 1.23 1.21.21 2.5 0 3.44 1.25l.98-2.98.81.95c-1.33.18-.61 1.27-.92 1.9 1.08-.33.95-1.15.87-1.95.48-.9.96-1.8 1.45-2.7l-.39-.28c-.24.42-.48.83-.73 1.25l-.47-.2c-.03-.37-.14-.75-.09-1.11.2-1.28.52-2.54.66-3.82.42-3.74.83-7.48 1.16-11.23.52-5.9 1.03-11.8 1.44-17.7.31-4.41.59-8.82.63-13.24.05-5.17-.09-10.34-.32-15.5-.12-2.75-.42-5.53-.95-8.23-1.2-6.05-3.75-11.67-5.93-17.4-1.56-4.09-3.38-8.09-4.8-12.22-2.5-7.23-4.72-14.56-7.17-21.81-1.62-4.79-3.47-9.5-5.16-14.27-.59-1.67-.97-3.41-1.45-5.13.04 0 .22-.04.23-.02 2.95 8.23 5.88 16.47 8.82 24.7.06-.27 0-.51-.06-.74-1.04-4.15-2.61-8.12-2.89-12.51-.32-4.96-1.49-9.86-2.2-14.8-.47-3.23-.77-6.48-1.19-9.71-.47-3.67-.94-7.34-1.51-10.99-.7-4.51-1.35-9.03-2.32-13.48-1-4.56-2.24-9.07-3.62-13.53-1.13-3.66-2.62-7.21-4.81-10.41-1.89-2.75-3.83-5.47-5.65-8.27a32.684 32.684 0 0 0-7.13-7.84c-3.27-2.58-6.58-5.1-9.88-7.65-.68-.53-1.24-1.31-2.32-.95-.23.08-.6-.19-.89-.33-2.64-1.23-5.26-2.48-7.91-3.68-.82-.38-1.7-.64-2.57-.96-.32 1.74.31 2.97 1.63 3.6.9.43 1.83.88 2.62 1.48 1.03.78 2.54 1.12 2.72 2.76.02.14.24.26.37.38 1.98 1.88 4.02 3.69 5.91 5.65 1.76 1.82 3.58 3.63 4.65 6.01.89 1.99 1.89 3.93 2.77 5.92 1.37 3.11 2.72 6.24 4.02 9.38.86 2.11 1.61 4.26 2.51 6.66.08-.46.07-.65.14-.8.25-.46.54-.91.81-1.36.35.41.86.78 1.02 1.25.59 1.66 1.13 3.34 1.55 5.04.81 3.23 1.54 6.48 2.29 9.73.96 4.13 1.91 8.27 2.86 12.4.16.69.29 1.39.46 2.18h-1.76c.25 1.84.37 3.74.8 5.56.2.85.11 1.36-.48 1.92-.2.19-.33.55-.34.84-.09 1.79-.19 3.59-.16 5.38.01.76.31 1.53.47 2.29l.3-.07.17-1.93.43-.07c.13.42.36.83.37 1.25.05 1.66.1 3.29 1.43 4.57.21.2.14.69.2 1.04-.35-.14-.69-.27-1.03-.42-.15-.07-.29-.16-.44-.25l-.3.12c.4 1.16.8 2.31 1.18 3.41l-1.53-.63-.16.31.27.64-1.03 2.28h1.16c-.37.58-1.94-.11-1.43 1l-1.14 2.18c.28.08 1.92-.52 2.08-.3l-3.31 1.59c.16.36.61.94.48 1.14-.76 1.17.35 2.8-.96 3.8-.07.06 0 .28-.03.42-.44 2.55-1 5.08-1.29 7.64-.3 2.64-1.79 5.12-1.11 7.89.05.2-.01.43-.02.64-.12 2.6-.93 4.93-2.68 6.88-1.31 1.46-1.17 3.22-.96 4.91.15 1.26.72 2.46 1.11 3.69.62 1.96 1.29 3.95 1.13 6.01-.36 4.87-.83 9.72-1.34 14.58-.11 1.01-.58 1.99-.89 2.98l-.34-.08v-1.84q-1.99 0-2.11 2.53l-.82-.05v-5.82c0-.79-.03-1.58-.02-2.37 0-.7.43-1.49-.48-1.99-.1-.05-.09-.41-.05-.61.1-.53.25-1.04.35-1.57.21-1.12.55-2.24.56-3.36.01-.82-.77-1.67.23-2.42.11-.08.09-.43.03-.62-.26-.91-.56-1.81-.83-2.72-.15-.51-.37-1.02-.39-1.54-.06-1.75-.69-3.29-1.42-4.89l-1.89 1.61.27.11c-.12.41-.11 1.05-.38 1.19-.84.46-1.8.67-2.66 1.1-.8.4-1.42 1.54-2.44.36-.06-.07-.28.03-.42.02-.52-.04-1.04-.1-1.67-.16-.64 1.91-1.28 3.86-1.95 5.8-.59 1.73-1.09 3.51-1.85 5.18-.73 1.6-.73 3.45-2.11 4.88-.9.94-1.16 2.51-1.69 3.8-.32.77-.62 1.56-.96 2.43 2.45-.94 4.62-2.24 7.11-2.66a.91.91 0 0 1-.46.45c-2.2 1.05-4.41 2.08-6.59 3.18-.48.24-.81.76-1.21 1.16l.34.47 3.34-1.87a21.19 21.19 0 0 1-3.27 2.96c-.95.69-2.04 1.19-3.03 1.84-1.57 1.04-1.51 1.03-.33 2.55 1.93 2.5 4.34 4.46 6.96 6.18.29.19.66.25 1 .38.29.11.58.24.87.36-.29.2-.56.52-.88.59-1.14.26-1.95-.56-2.76-1.1-1.8-1.21-3.49-2.58-5.02-3.73-.77.35-1.38.59-1.95.9-.2.11-.3.4-.44.61.17.05.37.07.49.17.18.16.31.39.53.68v-1.11c1.29-.29 2.16.16 1.99 1-.17.85-.42 1.69-.63 2.52l-1.04-.11-.05.37 2.04.76c-.2.1-.43.32-.68.35-1 .1-1.27.65-1.14 1.56.2 1.49.08 1.63-1.28 1.86l-.36-2.23q-1.5 1.01-.91 1.95l-.54.19.41.67c-.12.4-.24.71-.3 1.03-.31 1.83.05 3.61.47 5.39.15.62 0 1.34.25 1.9.48 1.12.64 2.12-.08 3.23-.23.36-.53 1.21.46 1.45.19.05.34.32.47.51.19.27.36.57.54.85l.76-.69 1.31.89-.53.7c.86.19 1.63.36 2.41.53-.37.23-.81.35-1.22.3-.5-.06-.98-.26-1.23-.33l-.2 2.25-.1-1.53c-.85.54-1.63-.67-2.38.22Zm-62.57 8.4c-.08.29-.23.59-.22.88.1 1.76.23 3.51.36 5.27.03.46.11.92.16 1.38l.3-.04c-.21-2.49-.41-4.98-.62-7.48-.1-1.1-.27-2.19-.29-3.29-.05-2.44-.34-4.81-1.71-6.92-.14-.21-.45-.3-.59-.39.3 1.48.64 2.85.83 4.24.11.76-.26 1.63-.03 2.33.46 1.39 1.19 2.68 1.8 4.03ZM195.6 88.44l-.03.03c.48-.72.67-1.4-.04-2.13-.17-.18-.26-.69-.13-.88.57-.81.63-1.41-.04-2.32-1-1.36-1.7-2.95-2.52-4.42-.21 1.02-.24 1.99-.63 2.8-.53 1.11-.31 1.91.55 2.61.41.33.94.51 1.39.79.3.19.56.43.96.73l-.81.35c.67.87.42 1.66-.28 2.38.57.59 1.07.42 1.57.06Zm-6.27-12.01 2.58 2.67c-.2-.68-.32-1.27-.54-1.83-.18-.46-.48-.87-.83-1.48l-1.23.67c.19-.3.38-.6.55-.91.13-.24.39-.53.33-.73-.26-.91-.42-1.94-.96-2.65-.62-.8-1.61-1.32-2.5-2l-.47.64c-.63-1.84-.22-2.04-1.59-1.84-.33-1.71-2.01-1.69-3.06-2.47.67 1.47 1.44 2.83 3.06 3.51l-.69.19c.85 1.37 2.04 2.03 3.76 2.24l-.99.45c.88 1.22 1.72 2.4 2.58 3.56ZM64.45 41.35l-.13.72.2.08 1.26-1.99-.29-.25c-.68.17-.68 1.02-1.07 1.47l.26-1.22-.27-.2c-.66.65-1.53 1.19-1.95 1.98-1.69 3.11-3.25 6.29-4.82 9.46-.46.92-.78 1.91-1.16 2.87.73-.67 1.28-1.42 1.77-2.2 1.67-2.71 3.34-5.42 4.96-8.15.48-.81.84-1.71 1.25-2.57ZM84.03 66.4l2.64-3.7.25.14-.39 1 .12.06c1.56-1.73 3.11-3.47 4.67-5.2l-.22-.25c-.53.33-1.04.69-1.59 1-2.4 1.37-4.55 3.09-7 4.43-2.02 1.1-3.63 3-5.36 4.61-1.03.96-1.92 2.06-2.87 3.1l.13.16.66-.3c-.75.85-1.59 1.56-2.37 2.34-.76.76-1.46 1.58-2.16 2.4-.69.8-1.34 1.64-2.01 2.46 2.94-2.3 5.69-4.77 8.56-7.09 2.25-1.82 4.65-3.46 6.98-5.18-.28.25-.56.51-.85.75-4.4 3.73-8.85 7.42-13.18 11.23-1.24 1.09-2.79 1.9-3.55 3.52-.62 1.32-1.42 2.57-2.16 3.84-.07.11-.26.15-.39.23l-.26-.21c2.63-4.52 5.33-8.99 8.41-13.25l-2.81 3.25-.34-.3c.93-1.09 1.77-2.28 2.81-3.25 2.9-2.67 5.88-5.24 8.83-7.85 3.47-3.07 7.05-6 11.1-8.32.64-.37 1.27-.8 1.8-1.31 2.2-2.12 3.63-4.8 5.15-7.4.11-.18.26-.34.38-.51l.23.1-.37 1.81c1.28-1.66 2.39-3.09 3.49-4.52l.45.31-1.17 2.09-.12-.26c3.76-2.01 7.52-4.04 11.28-6.03.3-.16.69-.22 1.03-.21.93.02 1.87.13 2.8.17.82.04 1.65 0 2.46.08 1.82.17 3.63.38 5.45.58.89.1 1.77.25 2.27 1.13l-.95 1.07c1.1.64 1.74.42 1.97-.63.11-.52.23-1.09.13-1.59-.47-2.35-1-4.68-1.53-7.02-.03-.13-.18-.23-.28-.35l-.36.12.82 4.16c-.9-1.28-.92-2.71-.82-4.14.09-1.37-.21-2.62-.9-3.8-.14-.23-.08-.6-.05-.9.17-2.05.86-4.05.23-6.18-.17-.57.25-1.46.66-2.01.72-.96.18-3.2-.95-3.64-.56-.22-1.28-.58-1.5-1.06-.4-.89-.93-.72-1.56-.52-1.05.35-2.09.72-3.14 1.09l-.03-.1.88-.56-.11-.26c-1.27.22-2.55.38-3.79.67-2.04.49-3.91 1.47-5.84 2.23-2.56 1.01-5.18 1.83-7.69 3.02-3.81 1.82-7.46 3.87-10.8 6.45-.48.37-.95.77-1.42 1.16l-.27-.28L91.42 27c-1.68.75-3.23 1.65-4.78 2.55-5.63 3.28-10.33 7.61-14.33 12.71-2.1 2.69-3.97 5.55-5.97 8.32a14.857 14.857 0 0 0-2.43 5.24c-.44 1.81-1 3.6-1.51 5.39l-.24-.06L64 54.29l-.35-.23c-.65.75-1.46 1.41-1.91 2.26-3.62 6.85-5.37 14.22-5.73 21.92-.23 5.02-.3 10.06-.47 15.08-.02.7-.22 1.39-.34 2.08l-.54-.06c-.05-3.76.13-7.51.3-11.27l.51-11.44c-.35.21-.47.45-.54.71-1.3 5.1-1.3 10.31-1.19 15.51.09 4.36-.3 8.73.71 13.06.59 2.53.73 5.16 1.07 7.74l.17-.02.31-1.25.31-.02c.1.29.27.58.3.88.14 1.18.19 2.37.38 3.53.14.86.44 1.7.68 2.58l-1.2-.85v4.25c.68-.04 1.24-.07 1.81-.11q1.33-.09 1.18 1.2c.73.13 1.56.55 2.17.34.85-.3 1.38 0 1.98.37.44.27.85.59 1.49 1.04-.26-1.38-.34-2.55-.73-3.59-.46-1.21-.48-2.55-1.42-3.66-1-1.18-1.92-2.57-2.41-4.03-.66-1.95-.86-4.05-1.28-6.08-.26-1.22-.03-2.31.61-3.39.6-1.01 1.26-2.08 1.48-3.2.42-2.14.57-4.34.79-6.51.03-.33-.15-.68-.18-1.03-.06-.61-.29-1.3-.09-1.82 1.04-2.76 2.19-5.48 3.3-8.21.07-.17.16-.33.24-.5-.49 1.91-1.4 3.56-1.78 5.32-.51 2.33-.62 4.75-.88 7.13-.11 1.04-.2 2.08-.25 3.12-.01.33.15.66.23.99l.84-.36c.16-.07.32-.22.47-.2 1.55.21 2-.18 2.18-1.7.22-1.92.5-3.84.8-5.76.06-.37.32-.72.48-1.07l.28.13-.78 3.82c.37-.35.5-.76.64-1.16.89-2.69 1.74-5.4 2.7-8.06.18-.49.81-1.22 1.17-1.18 1 .1 1.35-.53 1.77-1.14 3.25-4.77 7.42-8.65 11.88-12.24.77-.62 1.4-1.3 1.53-2.36-.93.54-1.79 1.05-2.66 1.55Zm99.01 116.96c-.35 1.05-.72 2.09-1.05 3.15-.22.69-.38 1.39-.57 2.08 2.18-1.41 2.94-3.59 3.54-5.8.6-2.23 1.01-4.52 1.5-6.78-1.1 2.2-2 4.45-2.91 6.7-.11.26-.36.46-.54.69.9-2.65 1.78-5.3 2.7-7.94.43-1.22.91-2.42 1.45-3.58.12-.26.6-.36.91-.53.7-1.34 1.26-2.88 1.72-4.45.78-2.71 1.5-5.44 2.24-8.16.36-1.32.75-2.62 1.04-3.95.12-.55.02-1.14.02-1.84-.03.03.12-.11.35-.31l-.85-.37c.27-.45.42-.98.77-1.24.91-.65.9-1.36.36-2.12.97-.85 1.16-1.98 1.35-3.06.25-1.44.41-2.9.6-4.34.51-3.82 1.07-7.63 1.49-11.46.2-1.85.49-3.8.11-5.57-.64-2.99-1.78-5.87-2.73-8.87-.2.18-.34.4-.54.48-.16.07-.42.03-.56-.07-.09-.06-.13-.4-.06-.47.96-.86.68-1.92.66-3.02-.03-1.52.24-3.04.4-4.88-1.72.21-3.33.41-4.94.61-1.17.15-2.33.38-3.5.45-1.31.08-2.62.02-3.9.02l-.96 2.69c1.33 0 2.74.97 3.55-.91.08-.17.66-.13 1.04-.19l.8-1.28.34.13c.23 1.3-.92 2.23-1.27 3.36-.61 1.95-2.16 3.2-4.37 3.93l2.95 1.08c-.41.24-.63.48-.84.48-1.24-.03-2.5-.31-3.71-.14-1.17.16-2.3.69-3.39 1.17-.43.19-.67.77-1.09 1.01-1.84 1.04-3.67 2.13-5.61 2.96-1.22.52-2.61.8-3.94.85-1.55.06-3.12-.25-4.67-.39-1.1-.1-2.2-.23-3.3-.29-.99-.05-1.99-.03-2.98-.03-.2 0-.41-.01-.59.05-.66.2-2.67-.9-2.79-1.58-.04-.22.04-.51.17-.69.98-1.3 1.99-2.58 3.09-4-.1-.75-.06-1.81-.39-2.73-.73-2.02-.83-2.31-.07-3.02.25.8.33 1.65.75 2.29.44.67 1.19 1.15 1.81 1.71l.3-.26c-.53-.82-1.07-1.63-1.6-2.45-.33-.51-.69-1.01-.96-1.56-.42-.86.07-1.59 1.18-1.75l-.38 1.36c1.85-1.19 2.94-2.59 2.73-4.77-.2 0-.47-.02-.74 0-1.92.19-3.84.5-5.77.57-2.34.08-4.52.52-6.48 1.88-.49.34-1.1.51-1.63.81-1 .56-2.1 1.01-2.97 1.74a83.855 83.855 0 0 0-5.37 4.96c-.67.68-1.43 1.61-1.49 2.47-.12 1.73.16 3.5.38 5.24.07.55.38 1.22.81 1.56 1.52 1.21 2.02 2.74 2.01 4.63 0 1.76.07 3.57.46 5.28.44 1.91.31 2.25-1.67 2.07-.05 0-.11.07-.17.1.16 1.92.49 2.33 2.35 2.94.16.05.34.14.46.25.63.61 1.3 1.18 1.84 1.86 1.78 2.23 3.85 4.24 5.02 6.91.44 1 .28 1.82-.77 2.04-1.31.28-1.43 1.14-1.6 2.16-.43 2.61-2.84 4.22-5.31 3.5-.59-.17-.93-.1-1.33.27-.18.17-.43.27-.83.5l.34-1.33c-1.13-.19-1.86.54-1.61 1.53.09.35.12.71.16 1.06.23 1.82.45 3.64.7 5.45.04.31.17.62.32.89.27.46.59.89 1.05 1.56 1.7-.37 3.41 1.54 5.48.57.11-.05.32.12.49.18 1.75.6 3.48 1.3 5.27 1.78 3.17.86 6.28 2.06 9.66 1.85.16 0 .33.19.5.3-.16.2-.29.52-.49.58-.37.11-.78.06-1.17.08v.15l3.9.46v.37c-.54.46-1.06.97-1.66 1.36-.62.4-1.36.61-1.96 1.03-2.44 1.71-4.8 3.56-7.72 4.41-2.34.68-4.7 1.28-7.07 1.85-1.63.39-3.29.69-4.95.99-.22.04-.47-.15-.71-.23.21-.2.39-.44.64-.58.17-.09.42-.02.64-.05l3.19-.45-.02-.41c-.67-.05-1.36-.2-2.02-.14-.76.08-1.49.37-2.25.52-1.41.29-2.83.55-4.24.83l.02.37 2.05.42-.02.36c-.25.05-.5.16-.74.14-3.32-.3-6.65-.51-9.94-.97-1.52-.21-2.96-.8-4.23.56-.07.07-.19.1-.29.14-1.37.47-2.74.93-4.11 1.4-1.66.57-3.3 1.18-4.98 1.68-.3.09-.74-.29-1.12-.45.29-.25.54-.61.88-.72 3.04-.94 5.88-2.31 8.77-4.02-1.51-.27-2.84-.81-4.04.43-.6.61-1.33 1.1-1.99 1.65-.53.45-1.05.92-1.71.09-.48.57-.88 1.07-1.32 1.53-.12.13-.36.14-.54.21-.08-.22-.23-.45-.21-.65.02-.17.24-.34.41-.47 1.07-.9 2.17-1.77 3.22-2.68.49-.42.91-.92 1.33-1.34-2.62-1.29-5.52-.16-8.39-1.35.7-.37 1.15-.54 1.52-.82.41-.32.66-.89 1.1-1.09 1.49-.68 3.1-1.12 4.54-1.88 2.38-1.26 4.65-2.7 6.98-4.05 1.4-.81 2.88-1.5 4.17-2.46.68-.51 1.08-.85 1.68.03.33-.31.59-.56.85-.79.65-.57.97-1.65 2.18-1.37.07.02.39-.42.36-.62-.15-1.05-.37-2.1-.58-3.14-.09-.43-.21-.85-.36-1.46 1.32.53.84 1.72 1.41 2.42-.02-1.1-.13-2.17-.3-3.24-.11-.69-.02-1.12.86-1.06 0 1.68.06 3.31-.02 4.92-.08 1.57.34 2.17 1.91 2.3.69.06 1.21-.1 1.1-.99-.21-1.71-.41-3.42-.58-5.13-.04-.41.07-.83.12-1.25l.45.04c.19 2.4.38 4.79.58 7.19l.35.15c.4-.47 1.18-.99 1.13-1.41-.3-2.55-.78-5.09-1.24-7.81-.72.43-1.32.86-1.98 1.17-.41.19-.95.4-1.34.29-1.13-.34-2.22-.82-3.31-1.28-1.06-.45-2.63-.29-3.14.59-.58.99-1.54 1.03-2.42 1.34-.3.11-.64.11-.94.24-2.3.96-2.75.82-3.94-1.33-.45-.82-.83-1.69-1.3-2.5-.37-.64-.95-1.17-1.26-1.83-.7-1.53-.7-3.22.28-4.5.86-1.13 1.33-2.28 1.45-3.59.12-1.34.1-2.67 1.37-3.44-.12-.31-.15-.68 0-.81.79-.68 1.59-1.36 2.46-1.91.56-.35 1.26-.49 2.14-.8-.14.54-.13.85-.27.98-1.27 1.15-2.58 2.24-3.84 3.4-.36.33-.69.8-.83 1.26-.18.58-.15 1.23-.24 1.84-.05.34-.16.68-.25 1.02l.26.08c.2-.37.37-.76.62-1.09.12-.16.37-.22.57-.32.1.21.3.43.28.62-.02.27-.2.53-.33.77-.58 1.07-1.3 2.09-1.72 3.22-.27.71-.3 1.64-.09 2.37.24.83.89 1.53 1.31 2.32.24.46.53.98.53 1.47 0 1.08.78 1.34 1.55 1.96l-.68-1.66.35-.2c.21.25.42.5.64.74.6.67 1.59.81 2.19.19.66-.68 1.22-1.47 1.94-2.36l-2.76-4.4-.82.51c.28-2.26.03-4.43 1.14-6.67.24.6.56 1 .52 1.37-.09.77-.29 1.55-.57 2.28-.58 1.52.31 2.44 1.22 3.54.15-.3.19-.51.32-.6.3-.24.63-.42.95-.63.09.34.2.67.26 1.01.09.55-.01 1.21.26 1.64 1.36 2.19 3.65 2.77 5.98 3.12 1.65.25 2.86-.74 4.11-1.67.67-.49 1.3-.74.93-1.75-.11-.31.11-.75.19-1.19 1.2.32 1.51-.43 1.48-1.25-.03-.8-.29-1.6-.5-2.39-.25-.96-.55-1.91-.83-2.86 1.59 1 2.32 2.47 2.14 4.13-.19 1.77-.33 3.62-1.33 5.27l.62.35c.77-1.11 1.35-1.1 2.23.03.15.19.78.19 1.08.05.99-.47 1.37-1.4 1.59-2.41.52-2.35.86-4.67-.74-6.81-.91-1.22-1.74-2.5-2.61-3.76-.35-.51-.6-1.2-1.08-1.51-1.27-.84-1.95-1.95-2.1-3.43-.02-.2-.13-.42-.26-.57-2.24-2.58-4.85-4.45-8.47-4.4-1.45.02-1.99-.32-2.2-1.66-.2-1.28-.98-1.5-2.1-1.54v1.12c0 1.19.04 2.38-.05 3.55-.02.27-.51.55-.83.71-.1.05-.57-.3-.56-.44.11-1.24.31-2.48.43-3.72.11-1.11.25-2.24.19-3.34-.08-1.28-.47-2.56.55-3.68.15-.16.18-.46.2-.7.09-1.59-.36-2.95-2.12-3.93 1.31-.1 1.1-.76.82-1.29-.24-.46-.59-1.05-1.01-1.19-2.43-.79-4.8-1.93-7.51-1.38-1.18.24-2.44.34-3.64.21-1.85-.2-3.34.48-4.8 1.43-1.25-.09-2.28.06-3.06 1.33-.64 1.03-1.71 1.8-2.59 2.68-.23.23-.47.44-.71.65l.25.29c2.1-1.22 5.15-1.13 5.71-4.47.03-.18.25-.34.38-.51 1.03.27.75 1 .51 1.63-.36.94-.81 1.85-1.22 2.77l.25.21c.6-.57 1.19-1.17 1.81-1.71.23-.2.55-.3.82-.45-.04.32-.04.66-.15.96-.08.22-.32.39-.45.6-.45.75-.88 1.5-1.32 2.25l.27.3 3.54-2.22c-.49 1.66-1.92 2.27-3.33 3.06.9.21 2.09.19 2.26.59.52 1.24 1.48 1.05 2.31.97 1.59-.17 2.46 1.57 2.25 2.75-.03.19-.13.46-.27.52-1.21.55-2.39 1.2-3.65 1.56-2.13.61-4.31 1.03-6.47 1.52-1.01.23-1.93 1.24-3.07.33-.06-.05-.26.07-.4.12-1.06.43-2.12.87-3.18 1.3-.26.11-.55.26-.81.24-1.27-.09-2.54-.24-3.81-.35-3.06-.29-6.04-.86-8.7-2.52-.51-.32-.95-.58-.89-1.41.08-.99-.8-1.35-1.74-.98-.41.16-1.03.12-1.43-.08-.41-.2-.67-.71-.98-1.09-.87-1.08-1.77-2.14-2.6-3.24-.25-.33-.32-.79-.5-1.18-.53-1.16-1.07-2.31-1.62-3.46-.1-.21-.22-.49-.4-.57-1.22-.54-2.46-1.04-3.79-1.58.1 1.58.22 3.15.28 4.71.03.76-.14 1.56.91 1.57-.17.45-.43.83-.43 1.21.02.89.21 1.78.25 2.67.14 3.11.29 6.22.34 9.33.03 2-.31 4.01-.17 5.99.27 3.73 1.12 7.37 2.34 10.91.79 2.3 1.66 4.57 2.51 6.84.77 2.04 1.48 4.1 2.37 6.08 2.11 4.76 4.25 9.5 6.5 14.2 1.64 3.43 3.45 6.79 6.03 9.65.72.8 1.46 1.59 2.06 2.48.34.5.29 1.26.62 1.78.56.87 1.27 1.65 1.97 2.42.23.26.62.41.96.53.38.14.86.11 1.18.32 1.41.92 2.73 2.01 4.2 2.83 1.43.79 3.01 1.32 4.5 1.96l.4-1.86c.28.27.32.29.33.31.04.1.1.21.09.3-.13 1.17.47 1.67 1.53 2.07 2.57.98 5.07 2.13 7.62 3.16 1.54.62 3.12 1.15 4.78 1.76l.32-1.36c1.16 1.42 2.25 2.8 4.29 3.43.37.12.71.33 1.07.48 2.04.89 4.05 1.69 6.36.81 2.13-.8 4.38-1 6.66-.93 1.03.03 2.09.07 3.1-.09 2.47-.39 4.94-.81 7.36-1.4 1.44-.35 2.87-.92 4.15-1.65 2.08-1.19 3.96-2.73 6.06-3.87 4.47-2.42 8.99-4.78 13.57-6.98 2.3-1.1 4.63-1.95 4.5-5.1 0-.03 0-.08.02-.1.13-.17.26-.33.38-.49l.27.1c-.13 1.04-.26 2.08-.41 3.3.7-.33 1.25-.63 1.83-.86.31-.12.7-.23 1.01-.14.69.19 1.28-.1 1.48-.76.09-.3.31-.66.58-.79.72-.36.7-.94.75-1.61.08-1.2.17-2.43.52-3.57.37-1.18 1.05-2.27 1.6-3.4Zm.12-101.68.29-.14c.21.35.38.72.63 1.04.36.47.68 1.12 1.17 1.3 1.45.55 2.98.92 4.55 1.38-.46-1.06-.76-2.1-1.32-2.99-1.64-2.57-3.39-5.06-5.06-7.61-.23-.36-.26-.86-.36-1.3-.09-.39-.03-.88-.24-1.17-1.39-1.92-2.93-3.74-4.25-5.7-.9-1.34-1.77-2.59-3.38-3.14-.19-.06-.28-.46-.38-.72-.14-.38-.14-.88-.39-1.13-1.64-1.61-3.24-3.28-5.02-4.72-1.56-1.26-2.87-2.75-5.16-3.16-3.08-.56-6.03-1.85-8.54-3.91-.46-.37-1.06-.65-1.64-.78-3.61-.76-7.2-1.69-10.85-2.11-2.94-.34-5.95-.17-8.91.06-.88.07-1.77.2-2.68.21-1.07.02-2.13.26-3.19.35-2.72.22-5.44.35-8.15.64-.83.09-1.23-.01-1.23-.69-1.06 0-2.03-.04-2.99 0-1.99.1-3.97.08-5.85 1.07-3.17 1.68-6.41 3.24-9.67 4.74-2.37 1.09-4.41 2.5-5.78 4.79-.4.67-1.02 1.2-1.49 1.84-.39.54-.7 1.13-1.1 1.77-.29.2-.81.41-1.13.79-.83.99-1.59 2.04-2.34 3.09-3.24 4.53-7.31 8.26-11.5 11.87-1.24 1.07-2.5 2.15-3.58 3.38-2.36 2.69-3.69 5.98-5.07 9.21-.53 1.23-.81 2.56-1.24 3.98.38-.04.58-.04.78-.09 1.42-.31 2.77-.69 4.1-1.44 2.32-1.3 4.92-.91 7.37-.31 3.3.8 6.45 1.15 9.25-1.36.53-.47 1.21-.77 1.83-1.13 1.26-.75 2.57-1.24 4.09-.86.44.11 1 .13 1.38-.06 2.11-1.02 4.08-2.25 5.53-4.17.67-.88 1.33-1.79 2.13-2.55 2.39-2.28 5.39-3.35 8.53-4.11 1.51-.37 2.86.57 2.96 2.14.1 1.55 1 2.69 2.21 3.23 1.95.87 4.05 1.44 6.13 1.95 1.47.36 2.15-.24 2.38-1.68.64-4.1 2.7-7.36 6.21-9.49 2.62-1.59 5.22-1.3 6.58 1.54 1.16 2.44 3.07 4.09 5.13 5.48 1.33.9 3 1.71 4.84 1.45.71-.1 1.44-.14 2.15-.09.94.06 2.05-.08 2.58.97.54 1.08 1.48 1.39 2.52 1.6 3.2.65 6.36.12 9.53-.33 1.44-.21 2.92-.21 4.38-.22 1.09 0 2.19.25 3.28.18 3.11-.19 6.22-.49 9.33-.74.48-.04.96-.06 1.48-.09l-.77-2.08Zm-80.14 24.68-.04.13c-.64-.3-1.28-.6-1.92-.88-.21-.09-.45-.13-.67-.14-.43-.01-.9.15-1.27 0-.85-.32-1.63-.59-2.59-.73-4.87-.7-9.64-1.87-14.11-4.05-1.06-.52-1.69-.38-2.42.55 1.99.58 3.92 1.14 5.85 1.7-.14.19-.27.25-.39.23-2.16-.47-4.34-.88-6.47-1.44-1.53-.4-2.91-.09-4.32.56l7.79.84c-.33.2-.68.3-1.01.28-2.33-.15-4.65-.31-6.98-.49-.8-.06-1.43-.06-1.79.9-.19.5-.77.97-1.29 1.22-1.26.6-2.55 1.17-3.89 1.54-.88.24-1.15.62-1.13 1.48.04 1.98.08 3.96-.03 5.93-.07 1.33.25 2.06 1.55 2.73 2.68 1.38 5.44 2.03 8.47 1.94-.05-.35-.14-.66-.13-.98 0-.24.12-.48.18-.72.24.15.56.25.7.47.2.32.27.72.42 1.14l1.2-.28v-2.02l.74 1.34 2.26-2.41-.8-3.95.29-.05.79 3.18.36-.08-.3-2.67h.23l.94 3.35c2.09-.7 2.27-.94 2.43-2.77.04-.46.25-.9.38-1.35h.44l.51 2.07c1.23-.26 2.43-.47 3.59-.79.34-.09.63-.48.85-.8.16-.23.17-.57.25-.86.39 1.27 1.3 1.23 2.32 1.28 1.05.06 2.11.37 3.1.76.75.3 1.35.95 2.07 1.34.64.35.99 1.49 2.07.8l.26.85c.62-.15 1.2-.22 1.72-.43 1.76-.73 3.5-1.48 5.49-1.04.4.09.86-.02 1.28-.1 2.52-.45 4.99-.55 7.39.58.65.31 1.43.34 2.25.53l-1.26-3.73.4-.14c.35 1.6 1.82 2.79 1.67 4.71l1.04 3.38c1.91.56 3.83 1.22 5.81 1.65 1.4.31 2.34.9 2.75 2.32.3 1.04.99 1.47 2.1.82l.25-2.56.2.03.21 2.7.34-.04v-5.88l-.22-.04-.89 1.36c-.28-1.13.15-2.02.8-2.82a35.88 35.88 0 0 1 7.74-7.08c2.27-1.54 4.86-2.62 7.32-3.88.27-.14.62-.12.94-.15 2.46-.18 4.93-.32 7.39-.55 1.17-.11 2.4-.28 2.71-1.79.02-.1.08-.23.17-.27.3-.17.61-.3.92-.45.1.28.21.56.28.84.06.26.07.53.08.64 1.24 0 2.35-.03 3.46 0 .83.03 1.24-.23 1.26-1.15.02-.86.06-1.89 1.46-1.51l-.11-1.47.35-.03c.13 1.05.25 2.11.39 3.27 2.89-1.44 5.56-.63 8.24.11.76.21 1.18.6 1.55 1.31.87 1.62 2.22 2.66 4.16 2.83l.12-1c.49.4.87.97 1.33 1.05 2.43.41 4.83.35 7.24-.34 1.2-.35 2.55-.47 3.8-.32.92.11 1.17-.1 1.26-.89.23-1.98.45-3.96.7-5.94.03-.24.14-.48.26-.69.97-1.78.88-3.63 0-5.32-.84-1.61-2.1-2.99-3.02-4.57-2.03-3.5-5.54-4.48-9.04-4.76-3.28-.27-6.64.42-9.97.63-1.24.08-2.56.26-3.72-.05-1.51-.41-2.91-.23-4.35 0-3.16.5-6.33 1.02-9.52.44-1.08-.2-2.51-.59-2.99-1.37-.69-1.12-1.46-1.18-2.47-1.18-2.25 0-4.55.33-6.57-1.07-.51-.35-.99-.74-1.49-1.11-.28-.2-.58-.39-.87-.59-.44-.29-1-.5-1.3-.9-.8-1.05-1.59-2.13-2.22-3.29-1.24-2.25-3.65-3.05-5.7-1.73-3.39 2.19-5.52 5.25-6.15 9.28-.24 1.56-1.37 2.5-2.9 2.11-2.14-.54-4.3-1.13-6.34-1.97-1.54-.63-2.55-1.93-2.75-3.71-.13-1.19-.55-1.62-1.75-1.52-2.82.24-5.4 1.3-7.55 3.08-1.5 1.24-2.7 2.84-4.05 4.27-1.52 1.6-3.38 2.67-5.48 3.27-.72.2-1.56-.03-2.33.06-2.25.26-3.82 1.88-5.7 2.89-.9.48-1.9.98-2.88 1.03-1.63.08-3.28-.13-4.91-.34-2.17-.27-4.32-.94-6.48-.04-1.71.71-3.36 1.61-5.25 1.81-.83.09-1.24.64-1.29 1.47-.14 2.37-.31 4.73-.42 7.1-.05 1.05 0 2.11 0 3.45 1.64-.72 3.01-1.32 4.38-1.92l.11-.4-.91-.28 1.16-1.1-.26-.3-2.92 2.39c.5-1.57 1.74-2.36 3.12-2.92 1.37-.55 2.8-.94 4.2-1.4l-.05-.25-1.21.19-.13-.27 1.32-.65-.7-.49c1.62.45 3.2 1.67 4.67-.3-.22-.14-.47-.28-.69-.45-.22-.16-.43-.34-.65-.52l.14-.23c1.6 1.43 3.52.96 5.35 1.05.67.03 1.34.2 2.16.34l-.73-1.18.24-.29c.5.29.98.61 1.51.85.27.13.61.13.92.14.5.01 1.02-.12 1.5-.02 1.12.24 2.21.58 3.42.9l-.52-1.32c.61.31.96.51 1.32.67.24.1.5.17.76.22.73.13 1.47.2 2.18.39.42.11.79.41 1.18.62l.21-.33c-1.28-1.57-3.01-2.5-4.98-3.09.56-.39 1.3-.07 3.49 1.3 1.16.72 2.4 1.3 3.7 1.99-.04-1.02.42-1.03.99-.68 1.11.68 2.2 1.39 3.3 2.09.34.22.68.45 1.3.85l-.63-1.88c.18-.06.22-.09.24-.08.93.35 1.71 1.53 2.9.54.04-.04.21.04.29.1.77.56 1.54 1.13 2.35 1.72.74-1 .88.15 1.27.67-.21-1.52 0-3.11-1.22-4.38.33 0 .77.01.85.2 1.18 2.55 1.51 5.16.44 8.02l-1.77-1.25c0 .94-.16 1.16-1.57 1.86.15-.25.22-.46.36-.6.64-.65.59-1.05-.33-1.34-.75-.24-1.43-.72-2.18-.9-.46-.11-1.01.17-1.74.31l-1.35-1.25c-.28 1.11-.82.96-1.46.51-.87-.61-1.75-1.19-2.65-1.8-.09.21-.18.38-.16.4 1.37 1.05 2.74 2.1 4.12 3.14Zm44.4-65.13.09.3c.16.05.32.08.47.16 1.16.59 2.27 1.32 3.48 1.75 1.33.48 2.9.43 4.12 1.08 3.25 1.73 6.38 3.71 9.54 5.6.28.16.48.44.72.67l-.17.23-2.06-1.21-.17.28c1.79 1.23 3.58 2.45 5.44 3.72.37-1.12.92-1.08 1.61-.47.96.86 1.92 1.71 2.89 2.56 2.15 1.89 4.35 3.74 6.44 5.69 1.73 1.62 4.02 2.68 5.01 5.05.09.2.36.35.56.48.84.54 1.74 1.01 2.52 1.63.52.41.81 1.1 1.3 1.55.5.46 1.23.68 1.68 1.17 1.79 1.95 3.48 4 5.29 5.93.93 1 1.45 2.08 1.38 3.41l1.17.77c-.8.39-1.03.85-.85 1.57.11.44.02.93.02 1.4l-.41.17.79.72c-.08.62-.32 1.3-.2 1.91.13.66.59 1.25.83 1.74-.17.36-.46.72-.47 1.08-.02.85.12 1.71.15 2.57.02.44.1 1.13-.13 1.29-.69.48-.37.92-.14 1.38.29.58.67 1.11.93 1.7.13.31.12.71.1 1.06-.02.35-.23.71-.18 1.03.2 1.33-.58 2.46-1.92 2.64-.37 1.35-.52 2.64-.14 4.1.43 1.66 1.51 2.24 3.04 2.51l-.14.28h-1.69c.15.31.23.51.34.69.76 1.25.85 1.24 2.18.59 1.19-.58 2.39-1.19 3.64-1.6 1.82-.6 3.66-.69 5.3.62.7.56 1.39 1.12 2.31 1.86.11-.85.24-1.41.24-1.96.01-1.69-.11-3.4-.01-5.08.08-1.37.76-2.79.55-4.09-.34-2.2-.94-4.44-1.88-6.44-.62-1.32-1.66-2.44-1.97-3.97-.25-1.19-.52-2.44-1.1-3.49-1.9-3.49-3.95-6.9-5.94-10.35-.12-.21-.2-.46-.29-.69l.35-.2 4.54 7.09c-.65-1.93-1.39-3.8-2.19-5.65-.82-1.87-1.65-3.75-2.59-5.56-.94-1.82-1.99-3.57-3.02-5.33-1.01-1.71-2.07-3.4-3.11-5.1l-.37.22c1.92 4.7 2.75 9.85 6.03 14.03-.31-.04-.56-.14-.7-.32-1.44-1.97-2.71-4.04-3.4-6.42-.46-1.59-.98-3.15-1.49-4.72-.54-1.65-1.1-3.29-1.65-4.93l.27-.17c2.55 3.01 4.83 6.23 6.69 9.71 1.87 3.52 3.54 7.14 5.3 10.72.06-.3.03-.61-.03-.9-.45-1.95-.81-3.92-1.37-5.84-.9-3.05-1.75-6.13-2.97-9.06-1.45-3.47-3.2-6.82-4.94-10.15-1.39-2.65-2.95-5.21-5.14-7.34-3.46-3.37-7.12-6.47-11.18-9.08-.2-.13-.5-.36-.64-.29-1.19.55-2.06-.21-2.95-.72-1.2-.7-2.27-1.67-3.53-2.25-3.44-1.58-6.95-3.02-10.44-4.5-.5-.21-1.17-.35-.93-1.03.09-.25.81-.27 1.24-.41.06-.02.1-.07.23-.17-2.52-2.03-5.39-3.33-8.4-4.26-2.08-.64-4.26-.97-6.39-1.44-1.54-.34-3.07-.71-4.61-1.04-.44-.1-.88-.13-1.33-.19l-.03.24 1.02.29-.03.16-1.88-.26c.29-.85-.3-.74-.69-.78-.29-.03-.62.07-.88-.02-.8-.29-1.6-.61-2.37-.98-1-.47-2.13-.82-2.91-1.54-.91-.85-2.37-1.39-3.5-.8.12.88.39 1.76.34 2.64-.13 2.71-.38 5.41-.58 8.11-.03.39-.14.84 0 1.17.7 1.69.55 3.75 2.21 5.03.14.11.19.38.23.59.59 2.64 1.16 5.28 1.78 8.12.38-.05 1.05-.09 1.69-.25 1.62-.4 3.22-.7 4.87-.19.33.1.89.22 1.03.06.61-.69 1.09-.2 1.68-.02.63.19 1.36.25 2.01.15.53-.08 1.01-.47 1.51-.72l.08.24-1.13.52ZM66.67 146c-.16-1.67-.16-3.38-.52-5.02-.74-3.38-1.57-6.69-.97-10.24.37-2.2.07-4.5.07-6.8-.56-.29-1.24-.68-1.94-1.02-1.11-.55-2.28-1-3.34-1.63-1.42-.85-3.33-.08-4.55-1.47-.05-.06-.21-.03-.31-.02-.98.16-1.85.42-2.34 1.45-.76 1.58-1.57 3.15-2.46 4.66-.94 1.59-.85 3.06-.04 4.68.62 1.24.99 2.61 1.36 3.95.11.39-.01 1.03-.28 1.29-.43.42-.3.7-.13 1.11 1.03 2.37 2.05 4.75 3.04 7.13.22.52.56 1.21.38 1.63-.46 1.08.04 1.98.31 2.89.71 2.35 1.64 4.65 2.25 7.02.54 2.08 1.4 4.13 1.06 6.4-.1.68.32 1.44.53 2.15.29.96.66 1.89.93 2.85.69 2.43 2.19 4.17 4.35 5.31.6-1.38 1.32-2.68 1.7-4.07.27-.97.2-2 1.51-2.24-.13-.28-.2-.4-.24-.53-.15-.45-.3-.91-.45-1.36.48.13.97.26 1.44.41.09.03.15.15.23.22 1.1.97 1.87 2.08 1.98 3.64.03.47.34.95-.25 1.09-.34.08-.79-.25-1.15-.46-.3-.17-.66-.69-.78-.63-.58.3-1.09.74-1.63 1.13l-.05.36c1.29-.04 1.05.59.91 1.28-.19.93-.25 1.89-.4 3.16.54-.34.79-.54 1.08-.67.54-.24 1.09-.47 1.65-.66.49-.17 1.06-.19 1.5-.45 1.07-.63 2.09-1.35 2.99-1.95-1.74-4.08-3.53-8.07-5.15-12.14-1.59-3.99-2.99-8.06-4.46-12.1-.08-.21-.01-.48 0-.72.03-.4.16-.8.1-1.18-.14-.97-.36-1.92-.55-2.88l.35-.12c1.24 1.25 1.29 3.11 2.26 4.53Zm132.13-25.23c.09.49.25.93.22 1.35-.12 1.81-.31 3.61-.45 5.41-.1 1.29-.09 2.58-.25 3.86-.22 1.75-.79 3.51.25 5.2a.6.6 0 0 1 .06.42c-.2 1.1-.4 2.19-.63 3.28-.64 3.01-1.34 6-1.93 9.01-.28 1.44-.3 2.93-.57 4.37-.33 1.78-.78 3.54-1.2 5.3-.12.48-.32.94-.49 1.41-.7 1.94-1.41 3.89-2.1 5.83-.04.11.05.26.1.5.18-.15.27-.24.38-.31 1.64-1.11 3.3-2.1 5.42-1.27.32.12.75-.06 1.26-.12l-.48-1.12.79-.67-.92-1.92-.34.12c.08.35.2.7.23 1.06.02.22 0 .56-.13.66-.14.11-.55.09-.66-.04-.27-.3-.53-.67-.61-1.05-.29-1.4-.08-2.69.54-4.04.68-1.46 1.09-1.7 2.24-.59.14.13.32.44.28.5-.14.17-.37.26-.58.36-.29.14-.58.26-.7.32.36.49.64.74.78 1.07.47 1.09.9 2.21 1.33 3.29 1.9-.59 1.79-.59 1.69-2.23-.07-1.09.22-2.19.35-3.29l.55-.02.43 2.18h.27c.07-.46.22-.92.21-1.38-.07-3.12-.22-6.24-.24-9.36-.01-1.72.14-3.44.27-5.15.02-.29.31-.56.47-.84l.25.12v1.96c.2-.24.24-.51.32-.77.55-1.85.9-3.8 1.71-5.53.79-1.69 1.39-3.36 1.59-5.2.15-1.35.37-2.7.62-4.04.05-.28.37-.51.57-.77.14.3.41.61.41.91-.02.85-.16 1.71-.24 2.56-.02.17.02.35.04.66.85-1.64 1.61-3.13 2.4-4.6 1.57-2.9 3.17-5.81 2.01-9.27-.35-1.06-.3-2.53-1.96-2.71-.13-.01-.28-.22-.36-.37-.47-.89-.9-1.79-1.39-2.67-.27-.48-.63-.91-1-1.44.48-.67-.02-1.39-.51-2.04-.39-.53-.98-.53-1.52-.19 1.53.63 1.58 1.09.96 2.5l-.69-.75c-1.27 1.61-1.49 1.66-3.77.78-.08-.89.44-1.25 1.21-1.47.7-.21 1.63-.15 1.8-1.19-1.45-.51-2.42-.16-3.37.97-.47.57-1.11 1.08-1.78 1.37-.93.4-2.05.4-2.94.85-3.06 1.56-3.73 1.69-2.25 4.23.03.05.1.07.11.08.55-.66 1.07-1.34 1.66-1.96.17-.18.51-.2.78-.29-.03.27 0 .58-.12.79-.53.88-1.14 1.71-1.67 2.59-.11.19-.07.52-.01.76.16.74.36 1.47.56 2.27l.74-.24Zm-43.92 53.87-.08-.25c-2.33 0-4.66.06-6.98-.02-2.56-.08-5.15.16-7.66-.65-1.8-.58-3.57-.3-5.37.3-1.33.44-2.78.5-4.17.75-.56.1-1.21.14-1.64.45-2.33 1.7-4.61 3.47-6.9 5.22l.15.42 4.5.42c-.25-1.1.2-1.31 1.03-1.16.42.07.86.14 1.28.1 2.61-.23 5.21-.51 7.81-.72.81-.06 1.7-.08 2.45.17.66.22 1.18.25 1.82.05.61-.19 1.6-.47 1.85-.19.73.8 1.19.19 1.76-.03.19-.07.41-.07.61-.12 1.19-.32 2.48-.46 3.54-1.02 2.07-1.11 4.01-2.46 6-3.71Zm-26.58-.87c1.58-.16 3.09-.31 4.6-.49.66-.08 1.32-.22 1.98-.37.95-.23 1.92-.78 2.83-.7 2.85.26 5.67.8 8.51 1.15 1.79.22 3.6.28 5.41.41l.03-.23-.99-.72.14-.28c1.24.32 2.48.63 3.73.95-.44-.39-.94-.56-1.44-.74-2.59-.93-5.14-1.95-7.76-2.77-2.69-.85-5.43-1.51-8.15-2.26-1.62-.45-3.26-.45-4.72.34-1.2.65-2.21.99-3.29-.09-.12-.12-.43-.14-.62-.08-.88.28-1.78.53-2.6.93-1.24.6-2.41 1.34-3.64 1.98-1.12.58-2.3 1.04-3.39 1.67-.47.28-.69.99-1.16 1.29-1.23.78-2.51 1.5-3.82 2.14-.88.43-1.84.7-2.76 1.04 1.83-.02 3.6-.27 5.36-.55.21-.03.4-.27.57-.43 1.24-1.14 2.47-2.28 3.59-3.32 1.48 1.13 2.34-.43 3.69-.72l-2.23 2.8c.51.08.89-.01 1.25-.12 1.24-.35 2.48-.74 3.73-1.02.39-.09.84.13 1.16.18Zm120.38 87.92c.18-.57.41-1.12.52-1.7.45-2.21.86-4.42 1.3-6.64 1.13-5.77 2.43-11.52 3.36-17.32 1.02-6.36 1.35-12.79.93-19.23-.06-.88-.44-1.74-.65-2.56.02-.65.14-1.32.04-1.95-.45-2.8-.95-5.59-1.48-8.37-.31-1.63-.72-3.24-1.09-4.86 1.14 20.97-.99 41.74-2.93 62.63ZM133.22 125.64l-.28.04c0 .41-.1.86.02 1.24.55 1.81 1.15 3.61 1.73 5.41.11.34.16.7.24 1.05l-.39.13c-.17-.28-.41-.55-.49-.85-.53-2.15-1.01-4.32-1.57-6.47-.09-.34-.6-.88-.78-.83-1.42.39-1.88-.49-2.26-1.53-.36-1-1-1.62-2.09-1.75-.35-.04-.68-.23-1.02-.33-1.27-.33-2.54-.65-3.57-.91-.43 1.37-.81 2.56-1.18 3.76-.4 1.31.41 3.11 1.71 3.55.85.29 1.05.92 1.19 1.63.19.92.6 1.41 1.65 1.42.88 0 1.76.28 2.63.49 2.16.52 3.75 2 5.44 3.29.6.45 1.1 1.21 1.82.87-.07-2.44-.11-4.77-.23-7.09-.05-.94-.28-1.86-1.38-2.37v4.42c-.57-1.85-.29-3.68-1.2-5.16Zm4.7 106.15c-.57.51-.64.9-.23 1.54 1.48 2.28 4.3 2.73 6.96 1.97 3.33-.95 5.77-3.25 8.13-5.63.17-.18.36-.53.3-.71-.45-1.3-.97-2.57-1.54-4.05-1.29 1.74.67 3.03.07 4.56l-1.33-2.85c-1.45.43-.09 1.58-.68 2.39l-.66-1.12-3.61 4.6-.37-.25c.2-.36.37-.75.61-1.08.84-1.16 1.74-2.28 2.54-3.47.22-.33.3-.88.2-1.26-.35-1.39-.8-2.75-1.21-4.12-.43-1.43-.98-1.63-2.46-.79.76 1.87 1.53 3.75 2.29 5.63l-.24.22c-.33-.27-.72-.49-.98-.81-.28-.34-.44-.77-.72-1.29-.62 2.16-1.59 2.65-3.14 1.78-1.08.69-.91 1.75-.63 2.84l-.4.11-.51-1.03c-.63.76-1.33 1.26-1.53 1.92-.18.62.17 1.39.29 2.09l-.22.1-.94-1.28Zm-87.37-93.36-.3.07c.28 1.85.48 3.72.86 5.55.67 3.27 1.47 6.51 2.18 9.76.48 2.17.74 4.41 1.42 6.51.59 1.83 1.05 3.63 1.07 5.56.03 3.51 2.39 5.42 5.03 7.08.3.19.72.21 1.16.34-.57-.89-1.1-1.64-1.56-2.43-.39-.67-.55-1.57-1.1-2.03-.94-.79-1.11-1.83-1.31-2.84-.66-3.41-1.18-6.85-1.81-10.27-.12-.64.07-1.63-1.12-1.59-.09 0-.23-.25-.27-.41-.17-.62-.3-1.25-.45-1.88-.72-3.13-1.38-6.29-2.2-9.4-.36-1.38-1.06-2.67-1.6-4.01Zm71.43-94.66c-3.24-.83-6.47-.96-9.76-.25-1.73.37-3.06 1.26-4.43 2.79 1.52.13 2.82.4 4.09.29 1.27-.11 2.5-.62 4.03-1.04l-.92 1.08 10.58-1.41v-.52l-3.7-.55.11-.4Zm86.4 28.63-.55.1c.21 1.33.29 2.69.65 3.97.52 1.9 1.26 3.73 1.84 5.61.09.28-.16.66-.26 1-.25-.21-.62-.37-.73-.64-.37-.92-.65-1.89-.97-2.83-.45-1.29-.92-2.57-1.38-3.86l-.36.11c.85 3.2 1.61 6.42 2.58 9.58.98 3.16 2.17 6.26 3.26 9.39.26-.37.19-.78.35-.9.9-.72.6-1.66.27-2.36-.49-1.03-.39-2.13-.69-3.16-.43-1.48-.83-2.97-1.2-4.47-.95-3.85-1.87-7.7-2.8-11.55ZM64.85 104.44l.26.05c-.15.53-.27 1.07-.47 1.59-.05.13-.34.24-.52.24-.1 0-.27-.26-.27-.4 0-.5-.02-1.01.08-1.5.33-1.54.69-3.08 1.07-4.61.28-1.13.6-2.25.95-3.52-.95.38-1.73.68-2.49 1.01-.14.06-.26.25-.3.41-.23.88-.6 1.77-.62 2.66-.06 2.79-.99 5.57-.03 8.37.43 1.25.81 2.52 1.21 3.78l.19-.07.16-1.47h.28l.32 2.48.27-.02.55-12.49-.28-.05-.84 3.88.17.05.32-.37Zm48.27 127.29c1.76 15.15 3.53 30.28 5.29 45.41.27-.21.37-.41.39-.62.4-4.01-.37-7.94-.95-11.87-.49-3.25-1.17-6.47-1.57-9.73-.39-3.2-.5-6.43-.78-9.64-.28-3.11-.67-6.2-.92-9.31-.13-1.56-.27-3.05-1.45-4.24Zm63.63-121.98.13.32c.46-.46.98-.88 1.37-1.4.43-.57.48-1.11-.29-1.6-.59-.37-1.25-.91-1.48-1.52-.47-1.23-1.46-1.49-2.5-1.75-.8-.2-1.62-.43-2.43-.46-.95-.04-1.92.06-2.86.22-.27.05-.7.53-.67.76.11.79.39 1.56.69 2.68.71-1.08 1.24-1.9 1.78-2.73l.33.15c-.31.84-.62 1.67-.94 2.52.8.24 1.52.45 2.24.66.61.18 1.38-.42 1.1-.96-.47-.92.23-1.37.48-2.33.67 1.2.87 2.23.79 3.26-.06.68.12.94.74 1.18.55.21 1.01.65 1.52.99Zm-1.55-77.83c.52-1.04.69-1.09 1.5-.51.93.66 1.83 1.35 2.95 2.19-.23-.84-.57-1.42-.52-1.98.09-1.09-.6-1.29-1.36-1.57-2.95-1.12-5.89-2.27-8.84-3.41-1.89-.73-3.77-1.45-5.66-2.17 3.62 3.06 7.59 5.47 11.93 7.46Zm-80.87 83.55.31.16v4.34c.49-.35.83-.6 1.19-.83.32-.2.82-.61.98-.51.79.49 1.17-.11 1.51-.54.59-.75 1.07-1.58 1.62-2.42-1.1-.84-1.99-1.81-3.1-2.3-1.1-.49-2.4-.54-3.62-.72-.17-.02-.6.38-.58.54.15 1.15.39 2.29.63 3.6l1.07-1.32Zm110.44 72.33c1.19-1.77.76-3.82.57-5.84-.12-1.3-.39-2.6-.44-3.9-.05-1.26.2-2.53.11-3.79-.12-1.93-.32-3.87-.66-5.77-.32-1.78-.88-3.51-1.36-5.38l-1.33.6c.65 2.55 1.42 4.94 1.83 7.4.34 1.98.26 4.03.34 6.05.03.68-.12 1.37-.05 2.04.3 2.88.65 5.76.98 8.58Zm-28.47 52.39.45.13c-.09.5-.06 1.07-.29 1.48-.98 1.75-1.11 3.61-.91 5.53.05.45.2.89.3 1.34.95-2.33 1.67-4.61 2.35-6.9.07-.22.04-.52-.05-.73-1.17-2.69-2.35-5.37-3.61-8.24 0 .92-.05 1.64 0 2.34.16 2.07.36 4.15.54 6.22.02.23.03.46.06.88l1.15-2.06Zm-10.99-117.52c2.02.61 3.21-.33 4.43-1.21.23-.17.49-.29.73-.43.02-.02.04-.06.04-.1.02-.96.81-1.18 1.47-1.51 1.88-.94 3.78-1.86 5.96-2.94-1.53-.99-2.99-1.09-4.64-1.31l.65.58c-2.62-.49-2.12-.83-2.77 1.59-.48 1.8-1.51 3.15-3.16 4.01-.81.42-1.65.8-2.72 1.33ZM107.2 46.89l-.05-.3c-.28.21-.55.46-.85.64-1.74.99-3.43 2.07-5.24 2.9-1.48.68-2.27 1.91-3.28 2.99l.22.3 12.08-5.62-2.88-.9Zm9.18 132.52c1.14.26 2.17.52 3.21.71.28.05.65-.05.89-.22.7-.5 1.31-1.13 2.03-1.59 1.1-.71 1.77-2.11 3.41-2 .42.03.88-.57 1.32-.88l-.13-.33c-1.04.22-2.09.37-3.11.66-1.13.32-2.22 1.05-3.35 1.09-1.92.08-3.05 1.14-4.27 2.55Zm14.05 46.99c-.02-.39.08-.8-.08-1.03-1.07-1.56-2.18-3.09-3.3-4.61-.12-.16-.33-.25-.7-.52.06.46.03.68.12.84.85 1.65 1.67 3.32 2.6 4.93.26.46.85.73 1.48 1.24-.04.07-.17.54-.41.61-.28.08-.72-.12-.98-.33-.37-.29-.65-.7-.97-1.06l-.23.12c.89 1.39-.66 3.12.7 4.45 1.48-.38 4.14-4.44 3.65-5.43-.63.26-1.25.52-1.88.78Zm-44.58-15.59c-6.02-1.92-11.09-4.97-15.42-9.27.62.88 1.28 1.7 1.98 2.5 1.72 1.97 3.52 3.86 5.89 5.06 1.27.65 2.57 1.26 3.88 1.82 1.12.48 2.29.74 3.66-.11Zm80.36 2.73c-1 .38-1.68.7-2.38.89-.74.2-.97.62-.9 1.33.16 1.64.29 3.28.44 4.91.05.54.11 1.07.16 1.61l.41.04c2.1-2.47 1.49-5.66 2.27-8.78ZM38.03 137.59h.4c.81-6.09.84-12.19.17-18.31-.36.84-.66 1.68-.78 2.55-.18 1.27-1.03 2.61.2 3.82.08.08.06.28.05.42-.01 2.18-.03 4.36-.04 6.53v4.99Zm133 125.22 1.25.48c1.75-3.58 3.57-7.22 2.25-11.66-1.21 3.85-2.36 7.54-3.5 11.18Zm-17.22-34.25q1.61-1.51.97-3.37c-.09-.27-.12-.56-.18-.84-.4-1.86-.81-3.73-1.21-5.59l-.35-.18c-.49.57-1.32 1.1-1.4 1.73-.18 1.4.52 2.48 1.43 2.76-1.08 1.97.32 3.55.74 5.48ZM42.63 94.72l.4.02c1.03-5.73 2.05-11.47 3.08-17.21-1.16-.18-1.26-.16-1.38.68-.59 4.04-1.16 8.09-1.7 12.14-.19 1.45-.27 2.91-.4 4.37Zm43.2 36.2-.81-5.96c-1.56 1.1-3.14 2.21-4.82 3.39.46.2.81.35 1.16.5.46.2 1.22.29 1.33.6.49 1.43 1.39 1.05 2.23.71l.91.77Zm7.99 72.26c-.34.85-.21 1.33.64 1.67 2.07.82 4.1 1.74 6.15 2.59.88.36 1.79.66 2.8 1.03-.07-1.15-.33-1.86-1.42-2.24-2.71-.94-5.38-1.99-8.18-3.05Zm-54.29-93.12.34.05c.07-.15.17-.3.2-.46l1.83-11.68c.11-.7-.35-.72-.84-.81-.58-.11-.8.14-.83.67-.07 1.15-.13 2.29-.2 3.44-.16 2.93-.33 5.86-.49 8.8ZM169.5 255.24l.32.14c.64-1.16 1.37-2.29 1.9-3.5.67-1.5 1.23-3.06 1.73-4.63.22-.69.15-1.48.21-2.22-2.24 3.14-4.25 6.29-4.16 10.21ZM95.53 123.3c-.23-.46-.35-.98-.67-1.25-.32-.27-.86-.36-1.3-.35-.18 0-.52.54-.48.77.23 1.29.76 2.44 1.87 3.25.63.46 1.22.4 1.71-.18.81-.96 1.08-2.09.87-3.31-.13-.76-.73-.95-1.23-.38-.33.37-.49.9-.77 1.45Zm70.05-7.85c-.96-.39-1.75-.74-2.55-1.03-.24-.09-.54-.04-.81-.06-.02.34-.16.74-.03 1 .3.6.71 1.16 1.12 1.69 1.21 1.59 1.36 1.9 3.12.35.23-.21.38-.51.56-.78.82-1.22.76-1.4-.65-1.99l-.77.81Zm6.66 85.62c-2.35.58-9.17 7.68-9.25 9.63 3.69-2.74 6.02-6.62 9.25-9.63Zm-10.64 2.13.63.69c3.31-1.08 5.13-3.94 7.63-6-2.38 1.05-4.69 2.24-6.98 3.45-.16.08-.37.39-.33.49.43.98-.45 1.01-.96 1.37Zm-70.74-90.36c-1.34.35-2.46.63-3.56.95-.12.03-.23.26-.26.42-.2 1.24 1.46 3.67 2.54 3.92.4-1.65.8-3.29 1.28-5.28Zm76.31 112.05c-1.43 1.19-2.81 2.31-4.15 3.47-.7.61-.95 2.62-.48 3.31 1.92-.91 3.89-3.78 4.63-6.79ZM73.03 119.58c.24 1.64 1.54 2.24 2.51 3.05.33.28 1.15.5 1.33.32.41-.41.83-1.11.77-1.63-.08-.62-.58-1.56-1.05-1.67-1.1-.25-2.3-.08-3.57-.08ZM82.91 100c3.4 1.94 9.45 3.76 11.28 3.46-.57-.22-1.05-.34-1.48-.57-2.43-1.36-5.03-2.26-7.74-2.86-.66-.15-1.38-.02-2.07-.02Zm86.06 119.8c.98-.35 1.45-.81 1.54-1.68.11-1.1.26-2.19.47-3.27.21-1.05-.21-1.74-1.3-1.77-.23 0-.68.34-.68.54-.05 2-.03 4-.03 6.18Zm-53.38 11.77.43.36c.78-.92 1.58-1.83 2.34-2.77.13-.16.23-.5.15-.67-.9-1.88-1.83-3.74-2.75-5.61l-.27.12c.2.6.47 1.18.58 1.8.27 1.5.55 3.01.66 4.53.05.74-.47.96-1.03.34-.33-.36-.58-.8-.81-1.24-.3-.58-.54-1.18-.8-1.77l-.16.07 1.65 4.83Zm33.55-20.95c2.02-.94 4.02-1.9 6.04-2.81 2.03-.92 3.61-2.41 5.17-3.97-1.73.71-3.39 1.53-5.04 2.36-.12.06-.3.21-.28.27.21.89-.58.91-1.03 1.1-1.8.76-3.57 1.55-4.85 3.05ZM84.3 121.71c-.55-.2-.93-.32-1.28-.48-1-.46-2.08-.81-2.95-1.46-.73-.54-1.31-.46-2.28-.17.79.9 1.38 1.77 2.16 2.4 1.72 1.39 2.14 1.34 3.92.03.09-.06.17-.13.43-.33Zm19.08 3.05c-.71-.03-1.77-.3-1.92-.04-.92 1.62-1.64 3.35-2.42 5.05l.18.25c.93-.54 2.1-.88 2.72-1.66.71-.9.91-2.19 1.45-3.59Zm-66.29 48.35.33.03c1.13-5.27.74-10.57.54-15.88h-.28l-.58 15.85Zm125.97 40.38c2.99-.28 3.36-.78 3.58-4.8-.93.83-1.78 1.79-2.83 2.44-1.06.66-.98 1.41-.75 2.35Zm-54.52 4.46c.93-.35 1.51-.53 1.48-1.41 0-.19.37-.42.6-.59.16-.11.45-.08.57-.21 1.37-1.48 2.71-2.99 4.07-4.48l-.14-.26c-.38.16-.86.22-1.13.49-1.73 1.7-3.43 3.44-5.1 5.2-.22.23-.2.69-.34 1.27ZM48.27 65.64c-.24.17-.37.21-.39.29-.91 3.23-1.83 6.47-2.7 9.71-.08.28.19.66.3.99.29-.24.78-.45.84-.74.68-3.35 1.29-6.72 1.96-10.25Zm116.34 39.16c-1.4.11-2.78.22-4.17.32-.79.05-.78.63-.75 1.16.02.35.19.68.3 1.08.75-.47.37-1.64 1.52-1.4v1.4c1.4-.42 3.13-.25 3.09-2.55Zm6.57 102.22c-.72 1.02-1.55 1.97-2.11 3.05-.25.48-.19 1.41.13 1.81.37.45 1.19.52 1.97.81v-5.68Zm-13.42 15.99.38.04c.14-.39.41-.79.39-1.18-.09-1.6-.23-3.19-.43-4.78-.02-.19-.51-.42-.8-.46-.19-.02-.61.32-.59.44.32 1.98.69 3.96 1.05 5.93Zm38.23-110.72 2.76-1.07c-1.49-3-1.58-3.1-2.99-3.05.07 1.3.15 2.59.23 4.11Zm-28.43 142.89.18.05c-.1 1.75-.19 3.51-.29 5.27 2.04-2.18.6-4.84 1.14-7.22.04-.18-.43-.48-.66-.73-.17.16-.45.31-.48.5-.17 1.13-.29 2.26-.43 3.4l.34.04.19-1.3Zm38.9-96.81c-.31-.59-.69-.96-.65-1.28.15-1.41.4-2.82.65-4.22.18-1.06.4-2.12.61-3.18-.39.53-.44 1.35-.83 1.58-.75.43-.8.99-.84 1.67-.11 1.79-.26 3.57-.34 5.36-.02.36.21.73.4 1.32l1.01-1.23Zm-44.51 56.9h-.35c-.19 2.45-.38 4.91-.57 7.43a74 74 0 0 0 1.57-.44c-.22-2.36-.44-4.67-.65-6.99Zm-50.01 7.63-.33.11c.41 1.69.84 3.38 1.22 5.08.13.57-.03 1.25.21 1.75.46.96 1.11 1.82 1.69 2.72l.27-.13c-1.07-3.16-1.77-6.44-3.06-9.53Zm30.49-178.36c-2.21-1.34-5.16-1.11-5.45.31.69.24 1.32.57 1.99.66.67.09 1.41.03 2.07-.14.51-.13.94-.54 1.4-.82ZM38.97 144.17l.6-.03v-10.67c-.42 3.56-1.24 7.11-.6 10.7Zm85.81 77.06h-.4c-.09.4-.38.93-.22 1.19.9 1.47 1.58 3.06 2.42 4.56.19.34.48.61.72.92l.25-.16c-.31-2.43-1.56-4.46-2.76-6.5Zm41.74-109.48c1.63.53 3.37-.74 3.65-2.67-1.32-.78-1.45-.78-2.31.42-.49.68-.87 1.44-1.34 2.24Zm-47.75 100.7c-1.04 1.32-1.99 2.59-3.02 3.81-.45.53-.52.94 0 1.43 1.46-1.59 2.88-3.12 4.33-4.7l-1.32-.53ZM82.8 27.56l-.2-.3c-.24.12-.49.22-.72.36-2.1 1.27-4.2 2.52-5.71 4.55-.44.6-1.08 1.05-1.63 1.57l.3.33 7.96-6.51Zm82.36 213.45c2.18-2.08 3.48-4.55 3.57-7.54l-.38-.16-3.19 7.7Zm42.32-99.72-.3-.16c-.9 3.15-2.34 6.15-2.52 9.49l.28.07c.18-.85.37-1.7.56-2.6l.6.31c.47-2.42.93-4.76 1.38-7.11Zm-39.95 91.29.33.06c.75-2.51 1.5-5.02 2.25-7.54l-.42-.12c-1.75 2.23-1.97 4.91-2.16 7.59Zm-36.77-11.39c.43.73.74 1.33 1.11 1.89.19.28.49.49.73.74.37-.53 1.5-.5 1.19-1.49-.22-.7-.6-1.34-.94-2.07-.74.33-1.34.6-2.09.94ZM190.7 34.66c-1.76-1.95-3.69-3.07-5.91-3.67-.4-.11-.87.04-1.3.07l-.02.33c2.31 1.04 4.62 2.09 7.24 3.27Zm-31.24 176.67c2.27-1.69 3.97-3.9 5.6-6.16-1.44.51-5.52 4.92-5.6 6.16Zm-23.11 6.11c1.41-.7 2.73-1.26 3.93-2 1.22-.74 2.32-1.67 3.48-2.51l-.25-.37c-1.51.91-3.07 1.76-4.53 2.76-.99.68-1.89 1.44-3.41.84l.77 1.28ZM91.71 112.93c-.77 2.43-.8 4.58.22 6.81.83-1.19.73-3.66-.22-6.81Zm63.62 104.94-.57-.14c-.12.39-.38.79-.33 1.15.21 1.44.5 2.87.79 4.31.08.42.24.82.36 1.23l.3 1.11.36-.07-.9-7.59Zm17.37 18.79-.29-.06c-.38 1.68-1.23 3.28-.8 5.06l-.58.79c1.37.05 1.85-.79 1.88-1.84.03-1.31-.13-2.63-.21-3.95Zm-56.77-7.8.27-.05c.08-1.88-.6-3.58-1.34-5.26-.27-.62-.44-1.38-1.56-1.21.9 2.22 1.76 4.37 2.63 6.52Zm45.15-21.39-.17-.24c-1.57 1.32-3.15 2.62-4.68 3.98-.19.17-.1.66-.14 1.05 1.48-.3 2.44-1.25 4.99-4.79Zm7.07 14.46c-2.06 1.4-3.9 3.01-5.05 5.28 2.13-1.33 3.67-3.23 5.05-5.28Zm-33.74-2.56c-.76.23-.98.61-.56 1.22.45.66.94 1.29 1.38 1.95.15.23.25.49.33.76.27.95.53 1.91.79 2.86l.48-.08c0-.31.09-.66-.01-.93-.69-1.8-1.43-3.58-2.16-5.37-.05-.13-.14-.24-.25-.42Zm71.73-39.11c.6-3.92.49-7.75-.71-11.22.23 3.57.47 7.39.71 11.22Zm-108.96 84.5c-2.55 1.12-4.84 2.64-7.11 4.64 3.04-.83 5.14-2.64 7.11-4.64ZM86.7 118.85l-1.1-4.09c-.46.27-.84.45-1.18.7-.2.15-.46.41-.47.62-.02.75 1.75 2.56 2.74 2.76Zm94.39-10.35-1.73-.34-1.43 2.08c1.5 1.04 2.67.42 3.16-1.74Zm-40.02 36.22-.3.17c.32.55.62 1.1.96 1.64.48.76 1.28 1.41.54 2.48-.11.16.21.83.48.97.41.2.95.13 1.43.17-.08-.39-.05-.85-.25-1.16-.92-1.44-1.9-2.85-2.86-4.27Zm-22.97 65.35c.7 1.36.69 1.42 2.08 1.84.7.21 1.43 1.02 2.21.1.16.21.31.43.49.63.18.21.38.41.57.62.08-.22.17-.43.23-.65.04-.15.06-.31.09-.53-.94-.31-1.85-.59-2.75-.91-.9-.32-1.79-.68-2.92-1.12Zm20.85 14.04c1.4-.94 1.39-1.99.08-3.7l-1.41.7 1.32 3ZM250 259.2l.17.04c.28-.99.57-1.97.82-2.96.45-1.77.89-3.55 1.29-5.33.07-.33-.09-.72-.14-1.08h-.41c-.58 3.12-1.16 6.22-1.74 9.32ZM63.54 44.43l.21.17 5.82-6.94c-3.28 1.38-4.44 4.25-6.03 6.77ZM38.55 147.55v8.54c1.1-2.85.98-5.7 0-8.54Zm43.97 39.25c.63 2.08 1.89 3.8 3.49 5.58-.32-2.2-1.82-4.62-3.49-5.58Zm-12.46-30.26c-1.68-4.18-3.24-8.07-4.8-11.95.12 2 3.3 9.84 4.8 11.95Zm17.98 44.04-.13.26c1.33 1.43 2.9 2.46 4.9 2.96 0-.44-.02-.99-.27-1.11-1.47-.76-3-1.42-4.51-2.11Zm97.25 52.04.45-.18c-1.08-3.04-3.01-5.65-4.44-8.51l-.34.17c1.44 2.84 2.88 5.68 4.33 8.52ZM81.91 120.14c0-.7-.08-1.15.02-1.56.12-.5.42-.96.56-1.46a.908.908 0 0 0-.17-.73c-.08-.09-.55-.02-.65.11-.52.72-1.2 1.43-1.36 2.24-.07.33 1.01.9 1.6 1.39Zm109.78-85.75c2.12 1.57 3.8 3.72 6.26 4.84-1.74-2.06-3.68-3.85-6.26-4.84Zm-71.78 192.99c1.47-1.03 1.51-1.48.6-3.04-.39-.67-.84-.78-1.49-.21.29 1.04.58 2.09.9 3.25Zm25.92-9.49c-1.94.54-2.12.79-1.68 1.98.41 1.13 1.32.63 1.77.33 1.16-.77-.19-1.49-.09-2.31Zm6.94-2.2c-.53.38-.99.7-1.46 1.02-.83.57-.14 1.2-.08 1.81.37-.05.79 0 1.09-.16 1.09-.61 1.12-.88.46-2.67Zm98.06-25.52c-.35 1.34 1.6 8.25 2.63 8.94-.91-3.09-1.73-5.89-2.63-8.94Zm-105.17 26.72-.59-2.01c-1.94.76-2.14 1.01-1.31 2.74l1.89-.73Zm4.85 3.25c-.71.31-1.35.36-1.05 1.22.37 1.08.73 2.17 1.1 3.27 1.25-1.49.04-2.87-.05-4.49Zm-12.48 10.2c2.02-1.81 2.09-2.92.43-4.74-.64.66-.54 1 .41 1.51-.05.31-.14.61-.14.9 0 .27.11.53.17.8l-.26.09-.68-.59-.32.1.39 1.93Zm72.38-93.65-.36-.06c-.52 3.1-1.03 6.2-1.55 9.3l.47.08 1.44-9.32Zm-62.17 84.1c-.5.78.29 4.26 1.08 5.48.17-.42.5-.81.42-1.07-.42-1.42-.94-2.8-1.5-4.41Zm-56.32 51.13-.15-.26c-3.68 1.38-6.2 2.78-6.79 4.03 2.31-1.26 4.63-2.52 6.94-3.77Zm89.35-158.17.13.3c.73-.46 1.45-.92 2.18-1.38l-.17-.28c-.73-.06-1.46-.09-2.18-.18-.79-.1-1.24.23-1.46.84l1.5.71ZM78.58 125.62l.21-.27-5.22-2.79c1.09 2.04 3.09 2.48 5.02 3.06Zm90.2-12.91c1.68.58 3.61-.93 3.53-2.7-1.17.89-2.31 1.76-3.53 2.7Zm-108.43-6.68.83-5.63c-1.73 1.64-1.61 3.51-.83 5.63Zm74.13 121.75c1.52-.97 1.56-1.5.23-3.01-.38.52-.75 1.03-1.12 1.52l.89 1.49ZM69.06 36.73l.22.39c2.03-.63 3.22-2.33 4.65-3.73l-.17-.23-4.69 3.57Zm91.61 179.02c-1.1.67-1.3 3.79-.34 5.61.11-1.8.22-3.6.34-5.61ZM107.49 45.56c-2.19.41-5.4 2.44-5.94 3.76 2.14-1.35 4.04-2.56 5.94-3.76Zm33.18 178.28c-1.47 1.08-1.45 1.8-.14 3.37 1.49-1.06 0-2.13.14-3.37Zm-34.26-5.66.55-.06c-.24-2.37-1.08-4.61-1.66-6.91l-.27.06 1.39 6.91ZM84.71 61.21l.22.33c2.43-1.62 4.86-3.25 7.29-4.87l-.27-.39-7.24 4.94Zm73.53 52.76c.74-.81.7-2.06-.08-3.17-1.12.52-1.12 2.23.08 3.17Zm-28.01 106.66 2.16-1.02c-.34-1.04-1.02-1.29-2.05-.84-1.17.5-.11 1.08-.12 1.86Zm40.9 10.98c1.65-2.73 1.85-4.04.77-5.04-.27 1.74-.52 3.39-.77 5.04ZM89.76 120.18l-2.62-2.72c.95 2.93 1.22 3.2 2.62 2.72Zm7.67 146.37-.35-.43c-1.73 1.41-3.45 2.83-5.18 4.24l.31.38c1.74-1.4 3.48-2.8 5.22-4.19Zm5.93-60.32.18-.47c-2.63-.91-5.26-1.82-7.89-2.74l-.1.29c2.6.97 5.2 1.94 7.81 2.92Zm58.43-95.69.52-.02 1-2.14c-.9-.47-1.69-.23-1.96.41-.19.44.27 1.16.44 1.76Zm71 25.15.34-.03c-.52-2.99-1.05-5.98-1.57-8.97l-.35.06c.53 2.98 1.05 5.96 1.58 8.94Zm23.38 95.14-.44-.04c-.14 1.01-.31 2.02-.38 3.04-.02.23.33.49.5.74.18-.26.52-.52.52-.78 0-.99-.12-1.97-.2-2.96ZM40.43 114.02l-.54-.02c-.55 1.97-.19 3.97.17 5.97l.37-5.95Zm82.62 103.97c-1.31.57-.85.97.55 3.01.75-1.04.65-1.6-.55-3.01Zm33.53-2.25c.44-.38.93-.64 1.14-1.04.19-.35.13-.88.05-1.3-.01-.08-.61-.16-.9-.08-.5.13-.76.46-.54 1.05.15.39.16.84.25 1.37Zm-25.36 9.32c.29-.89-.42-2.74-1.17-3.25-.21-.14-.61-.02-1.14-.02l2.31 3.27ZM86.01 120.77c-.99-1.08-1.78-1.96-2.63-2.89-.3 1.2.37 1.9 1.13 2.47.35.26.88.26 1.49.42Zm168.75 119.94h.3c.3-1.45.63-2.91.89-4.37.04-.23-.19-.51-.3-.77-.16.2-.44.39-.47.61-.17 1.51-.29 3.02-.42 4.54Zm-141.1 24.16h.47c0-1.37.01-2.74-.02-4.11 0-.13-.23-.27-.36-.4-.11.16-.31.32-.3.47.05 1.35.14 2.69.21 4.04ZM133.12 227c-.75.99-1.43 1.89-2.11 2.79l.23.22c.57-.4 1.11-.86 1.72-1.19.88-.47.89-.99.16-1.83Zm45.04-31.87c-.36.13-.66.2-.94.34-.32.16-.63.34-.9.57-.16.14-.32.38-.33.58 0 .11.28.3.47.35 1.02.26 1.97-.74 1.7-1.84Zm-40.56 29.92.38-.02c.56-1.22-.74-2.06-.92-3.13-.03-.18-.42-.29-.65-.43l-.15.21c.44 1.13.88 2.25 1.32 3.38Zm-33.41-99.65-.27.3c1.18.41.71.92.31 1.47-.61.83-.53 1.01.27 1.16l1.36-2.5-1.67-.43Zm68.5 130.1-.35-.13c-.66 1.94-1.32 3.87-1.98 5.81l.43.14 1.9-5.82Zm-27.94-30.76c-.4-1.1-.73-1.98-1.05-2.86-.96.18-.75.8-.62 1.35.19.8.61 1.37 1.67 1.51Zm27.3-20.67-.28-.19c-.98 1.33-2.46 2.32-2.58 4.22.95-1.34 1.9-2.69 2.85-4.03Zm-61.23 18.92v-3.76c-1.3 1.32-1.23 2.13 0 3.76Zm61.8-110.01 2.92-1.87c-1.55-.79-1.83-.62-2.92 1.87Zm66.67 48.53.46-.17c-.69-1.92-1.37-3.85-2.06-5.77l-.3.1c.63 1.95 1.27 3.9 1.9 5.84ZM113.07 41.59l.11.36 4.94-.79-.05-.32c-1.66.3-3.42-.05-4.99.75Zm54.46 177.14h.26v-5.4h-.26v5.4Zm-56.58 26.25-.1.02v5.78l.46-.02-.36-5.78ZM94.56 102.84l.11-.19c-.83-.6-1.67-1.18-2.48-1.8-.55-.42-.92-.35-1.2.37 1.2.54 2.39 1.08 3.57 1.62Zm60.36 111.54c-1.4.72-1.45 1.03-.57 2.74 1.15-.7.28-1.74.57-2.74Zm-.34-166.43.12-.43-3.5-1.06-.12.44c1.08.66 2.28.91 3.51 1.05Zm-76.29 74.52-.08 1.42 2.28.39.12-.34-2.32-1.47Zm66.86 88.04-.06-.15c-.88.25-1.83.38-2.63.8-.67.36-1.16 1.07-1.72 1.62.8-.27 1.42-.8 2.12-1.2.73-.42 1.52-.72 2.29-1.07Zm-47.19-88.73c1.45.48 2.94-.27 3.45-1.63l-3.45 1.63Zm-57.91-8.65.52.04.41-4.28-.38-.05c-.2 1.43-.8 2.8-.55 4.29Zm25.57 1.86h.3v-6.49c-.11 2.16-.66 4.33-.3 6.49Zm109.03-2.24.09.3 3.26-1.1c-1.72-1.26-2.3.52-3.35.8Zm-16.9 95.14.22.37c1.32-.96 2.64-1.92 3.96-2.89l-.21-.29-3.97 2.81Zm-57.33-85.5c1.4 1.07 2 .84 2.49-.85l-2.49.85Zm9.46-17.53c.12-1.51-.97-3-2.15-3.05.71 1.01 1.35 1.92 2.15 3.05Zm51.22 106.45c-.77.68-1.94.92-1.5 2.29 1.23-.26 1.44-1.14 1.5-2.29Zm-18.41 10.16c1.26-.54.24-1.31.17-1.94-.02-.15-.57-.24-.87-.35l-.13.29.83 2Zm-75.72-89.58h-.17v4.5h.17v-4.5Zm26.01 66.83c-1.08-.87-1.98-1.58-2.95-2.36.06 1.25 1.19 2.18 2.95 2.36Zm16.9-180.82-.11-.36-5.45 1.58.08.29 5.47-1.52Zm67.6 45.28.2-.16c-1.04-1.07-1.55-2.65-3.2-3.14l3 3.31Zm-69.82 150.64.37.37 2.73-2.57-.27-.3-2.82 2.49Zm42.28 4.13c-.91.37-1.47.79-.65 1.81l1.14-.49-.49-1.32Zm-28.79 1.46-.47.21c.34.73.67 1.47 1.03 2.19.04.08.35.1.46.03.1-.07.16-.33.1-.44-.35-.67-.74-1.33-1.12-1.99Zm57.93 23.65-.37-.05-.63 3.24.32.07c.09-1.12 1.27-1.99.68-3.26Zm-3.98-38.92c-.55 1.19-.5 2.56.11 3.1q.5-.85-.11-3.1Zm-47.16 10.23-.12-.26c-.69.49-1.39.96-2.04 1.49-.1.08.01.43.03.66.22-.03.52.01.64-.11.53-.56 1-1.18 1.49-1.77ZM40.46 132.1h.32v-6.95h-.02l-.3 6.95Zm80.3 83.39.26.28 1.46-1.78c-.77-.39-1.6.28-1.72 1.5ZM20.34 243.17c1.07-2.74 1.06-2.88 0-3.06v3.06Zm148.62 4.64.28.07c.37-1.37.74-2.74 1.1-4.11l-.41-.1-.96 4.15Zm-30.34-29.32-1.56 1.39.23.36 1.8-.51-.48-1.24Zm-.51-5.71-.25-.34-3.13 2.8.19.22 3.19-2.68ZM66.87 191h.26l-.38-4.24-.43.05.54 4.19Zm75.21 25.64c-1.14.23-1.17.67-.15 1.88 1.04-.6-.04-1.26.15-1.88Zm33.79-14.53 1.61-.43-1.24-1.64-.26.15c.07.28.22.57.2.84-.02.33-.18.65-.31 1.07Zm15.52-120.34c.75-.95.66-1.11-1.54-1.79.28.44.44.78.68 1.06.22.26.52.45.86.73Zm-38.92 132.1q-1.96-.45-1.92.78c.67-.27 1.3-.53 1.92-.78ZM167.2 108.7l-.31-.31c-.94.41-1.33 1.25-1.71 2.11l.21.18 1.81-1.98Zm-99.52 87.87.37-.12-1.47-3.8-.24.09 1.34 3.83Zm66.88 26.98c-1.66.45-2.02 1.04-1.23 1.89l1.23-1.89ZM126.3 41.84l-2.59-.35c1.96 1.37 1.76 1.26 2.59.35Zm-23.26 162.31.25-.54-2.84-1.13-.1.23c.89.48 1.79.97 2.68 1.45Zm-67.05-34.19h.12v-6.38h-.12v6.38Zm151.47 5.75-.3-.06c-.28 1.32-.57 2.64-.85 3.96l.27.06.87-3.96Zm-30.93-55.38-.15-.31c-1.02-.23-1.69.26-1.85 1.45l2.01-1.15ZM25.22 224.8l-.26-.14-.98 4.2.31.07.93-4.13Zm107.64-12.15c-1.96-.26-2.63-.07-2.58.74l2.58-.74Zm28.03-90.4c-.9-.55-1.61-.98-2.39-1.46.22 1.3.71 1.61 2.39 1.46Zm-14.64 91.81-.33.05c.17.71.34 1.43.53 2.13.02.06.34.1.35.08.07-.17.18-.38.13-.53-.2-.59-.45-1.16-.68-1.73Zm-5.49 5.88-.46.16.83 2.22.43-.16c-.27-.74-.53-1.48-.8-2.23Zm-21.6 1.94h-.33l-.35 1.22h1.44l-.76-1.22Zm121.33-57.81-.2.09c.48 1.36.95 2.71 1.43 4.07l.28-.1c-.5-1.35-1.01-2.7-1.51-4.06Zm-133.24 51.59.5 1.04 1.39-1.81c-.74.3-1.26.52-1.89.77Zm144.76 33.16.46.07.36-3.09-.24-.03-.58 3.05Zm4.15-19.89.35-.04-.21-3.48-.15.02v3.5Zm-153.3 33.17.38-2.57c-.94 1.28-1.03 1.83-.38 2.57Zm70.42-19.1-.27-.17-1.32 3.29.23.1 1.36-3.21Zm-39.26-25.25-.54-.18-.57 1.02.88.22.23-1.05Zm-8.85-4.42-.3.14c.09.26.17.74.27.75.43.03.87-.09 1.3-.15l-.03-.28c-.41-.15-.83-.3-1.24-.46Zm48.78-17.2-.1-.17c-.6.26-1.21.49-1.79.78-.13.06-.17.31-.25.47.2.04.48.19.6.1.54-.36 1.04-.78 1.55-1.18Zm-55.28 24.53-.35-.16c-.72.29-1.25.65-.39 1.62l.74-1.46Zm-52.04-93.39-.07.02v3.84h.28l-.21-3.86Zm83.13 89.28-.24-.37c-.37.2-.8.33-1.08.62-.11.12.11.56.24 1.06.48-.58.78-.95 1.08-1.31Zm100 46.56.2.06c.36-1.17.73-2.34 1.09-3.51l-.23-.07c-.36 1.17-.71 2.34-1.07 3.52Zm-211.72-122h-.19v2.75h.19v-2.75Zm128.4 61.88.27.29 1.84-1.98-.38-.38-1.73 2.07Zm-51.4 59.13h.21v-2.58h-.21v2.58Zm88.12-74.68.19.02v-2.53h-.19v2.51Zm-85.26 68.42-.29.02.24 3.43h.05v-3.44Zm29.02-36.88c1.01-.53.36-1.11.32-1.68h-.4l.08 1.68Zm-10.33-.66.29.45 1.55-1.16-.17-.27-1.67.98Zm-32.42-14.08-.09.23c.78.29 1.57.58 2.35.87l.15-.41-2.41-.69Zm13.92 20.83-.31.15c.48.91.97 1.81 1.45 2.72l.3-.16-1.44-2.7ZM51.55 121.29l-.31-.16-1.34 2.59.29.15 1.37-2.58Zm45.71 6.76-.22-.27-2.23 1.91.2.24 2.24-1.88Zm4.89-26.02.26-.2-1.27-1.73-.39.3 1.4 1.62Zm30.73-68.78-.45.08.6 2.26.25-.06-.41-2.29ZM131.16 217l-.38-.44-1.59 1.42.24.27c.57-.42 1.15-.83 1.72-1.25Zm19.11-4.59.18.33c.56-.45 1.13-.9 1.69-1.35l-.25-.3-1.62 1.33ZM106.8 127l1.95.34c-.31-1.06-.67-1.11-1.95-.34Zm-2.85 2.2.12-.38-1.11-.78-.25.16c.06.3.02.76.21.87.26.17.68.09 1.03.12Zm2.98-26.58-.32.26 1.68 1.97.25-.21-1.62-2.02Z"/><path d="M265.72 43.25c-3.48-.18-6.95-.38-10.43-.53-4.92-.2-9.84-.38-14.75-.53-6.8-.21-13.56.15-20.32.93-4.21.49-8.45.65-12.68.11-.39-.05-.76-.21-1.13-.33l.04-.49c.6 0 1.22-.08 1.8.01 4.93.77 9.83.16 14.72-.28 7.21-.65 14.42-.62 21.65-.24 5.16.27 10.34.23 15.51.37 1.86.05 3.73.21 5.59.32v.65ZM265.72 56.64c-3.12.07-6.24.06-9.35.22-6.19.31-12.4.22-18.58 1.17-5.03.77-10.12 1.08-15.19 1.59-1.07.11-2.14.23-3.21.34-.14.02-.32.13-.41.08-.33-.19-.63-.44-.93-.66.27-.2.54-.55.82-.56 1.9-.08 3.81.03 5.71-.13 4.51-.38 9-.96 13.5-1.32 5.08-.41 10.17-.72 15.26-.98 4.12-.21 8.26-.27 12.38-.39v.65ZM265.72 141.08c-2.64-.28-5.27-.67-7.92-.81-4.73-.25-9.38.43-13.96 1.57-2.7.67-5.41.52-8.12.07-.2-.03-.35-.33-.52-.5.21-.07.45-.26.61-.21 3.95 1.2 7.74.12 11.57-.73 4.14-.92 8.35-.87 12.56-.53 1.93.15 3.85.47 5.77.71v.43ZM265.72 92.27c-5.62.07-11.25.11-16.87.24-1.49.04-2.98.39-4.47.56-.38.04-.77-.08-1.16-.12l-.02-.37c.49-.09.98-.24 1.47-.27 5.87-.28 11.74-.56 17.61-.8 1.14-.05 2.29.07 3.44.11v.65ZM121.4 270.4c-.17-8.93-.34-17.86-.5-26.79h.41c0 1.08-.01 2.17 0 3.26.06 4.2.12 8.4.21 12.6 0 .32.37.61.52.94.14.32.28.66.32 1.01.44 4.01.88 8.03 1.25 12.05.05.57-.35 1.17-.43 1.77-.11.8-.08 1.61-.16 2.42-.05.5-.14 1-.31 1.47-.1.25-.42.58-.63.58-.23 0-.56-.33-.65-.58-.17-.5-.22-1.05-.3-1.57-.64-3.88-1.28-7.76-1.9-11.64-.07-.44-.39-1.17.39-1.16.33 0 .84.71.93 1.17.31 1.49.46 3.01.67 4.52l.17-.02ZM119.27 251.42l-.32-4.88.26-.02.33 4.86-.28.04ZM128.65 259.14v-4.83h.14v4.87l-.14-.04ZM183.28 264.06l.61 1.49-.43.19-.66-1.46.48-.23ZM34.56 172.97v-5.27 5.28ZM67.2 279.89l-5.74 3.55-.14-.24c1.92-1.21 3.83-2.43 5.75-3.64l.13.33ZM78.77 276.05c-1.06.59-2.12 1.18-3.17 1.77l-.12-.21 3.14-1.81.15.25ZM199.88 197.99c-2.21-.89-2.88.61-3.52 2.15l-.35-.06c-.03-.41-.24-.92-.08-1.21 1.07-1.86 2.59-3.32 4.33-4.55.17-.12.53-.06.77.03.47.17.91.41 1.21.54 1.18 1.62-.22 2.38-.95 3.38-.61.84-1.2 1.69-1.67 2.73l2.68-2.1.29.3c-.62.67-1.14 1.51-1.89 1.99-2.59 1.65-5.2 3.31-7.94 4.71-1.52.78-3.33.89-5.05.54-.65-.14-1.26-.59-1.82-.99-1.55-1.12-3.1-2.26-4.59-3.46-.51-.41-.9-1.01-1.23-1.59-.12-.22.09-.62.15-.94.26.16.56.27.78.48.39.36.68.85 1.1 1.16 1.69 1.27 3.37 2.56 5.15 3.69.8.51 1.83.67 2.75.99l-.07-.43c.48-.41.93-.88 1.45-1.23 2.69-1.83 5.4-3.62 8.08-5.44.19-.13.27-.44.41-.68ZM181.62 230.2c-.85-.24-1.55-.44-2.44-.7 1.1-.56 1.96-.29 2.44.7ZM234.61 263.56l1.63.43-.69 1.16c-.4-.68-.66-1.12-.94-1.59ZM185.23 241.37l-1.42-.52.18-.45 1.44.5-.2.47ZM182.44 233.65l.89 1.64-.2.19c-.32-.34-.66-.66-.93-1.04-.07-.1.11-.37.24-.79ZM138.12 201.22c-2.87-.31-5.42-.44-7.6-2.04-.74-.55-1.65-.86-2.44-1.34-2.33-1.4-2.24-4.18.05-5.73 1.87-1.27 3.99-1.28 6.06-1.57 1.45-.2 2.91-.28 4.34-.54.68-.13 1.31-.55 1.95-.88 2.26-1.16 2.93-.64 4.7 1.09 1.77 1.72 1.73 5.17 0 7.18-1.21 1.41-2.55 2.71-4.52 3.08-.97.18-1.9.56-2.55.76Zm2.86-8.44-.33.09c-.06-.12-.13-.23-.19-.35-.7-1.32-1.21-1.53-2.65-1.2-.66.15-1.38.36-2 .22-2.03-.46-3.91.21-5.8.69-.59.15-1.23.55-1.6 1.03-1.42 1.86-1.57 2.73.18 3.66 2.44 1.32 4.83 2.6 7.69 3.06 2.56.42 4.58-.59 6.61-1.61 1.73-.87 2.38-2.6 2.61-4.54.2-1.72-.31-2.87-2.23-3.96-.99-.56-2.21-.26-3.38.83.36.68 1.38 1.11 1.1 2.08ZM101.68 172.5l1.49-1.29.24.1c-.09.33-.1.72-.3.97-.49.62-1.33 1.04-.99 2.07.02.05-.47.27-1.1.38.25.69.34 1.52.79 2.04 1.31 1.51 1.4 3.06.54 4.77-.08.16-.17.33-.19.5-.21 1.45-1.21 1.92-2.5 2.02-2.07.16-3.31 1.1-4.02 3.2-1.14 3.36-3.37 3.22-5.88 1.33-.84-.64-1.45-1.7-1.93-2.68-.32-.65-.31-1.51-.28-2.27.03-.74.28-1.48.43-2.21.37-1.82 1.19-3.25 2.99-4.06 1.56-.69 2.37-2.08 2.73-3.67.41-1.84 1.45-2.93 3.29-3.19.5-.07 1.11-.04 1.56.18 1.05.51 2.02 1.16 3.12 1.81Zm-.94 1.04c-.65-.53-1.18-1.08-1.81-1.45-.55-.32-1.21-.61-1.83-.61-1.38 0-2.09.88-2.42 2.17-.51 1.99-1.56 3.63-3.43 4.61-1.64.87-3.41 4.57-2.89 6.36.6 2.08 1.85 3.65 3.98 4.31.41.13 1.1.03 1.39-.25.52-.5 1-1.16 1.2-1.84.6-2.05 1.97-3.43 3.98-3.57 2.05-.14 2.58-1.43 3-2.92.29-1.01.21-2.05-.6-2.92-1.23-1.31-1.35-2.32-.58-3.88ZM106.33 138.35c-.11 2.43-1.5 4.28-3.84 5.17-1.91.72-3.81 1.47-5.7 2.23-.33.13-.61.38-.91.58-2.09 1.38-4.17 2.78-6.28 4.13-1.09.69-4.09.19-4.82-.74-.96-1.23-.77-3.89.45-4.97.91-.81 1.89-1.56 2.93-2.19.42-.26 1.1-.27 1.62-.16 2.57.53 4.86-.61 5.68-3.02.37-1.07 1.31-1.01 2.06-1.3 1.42-.56 2.87-1.06 4.33-1.49.88-.25 1.83-.46 2.73-.42 1.33.06 1.81.77 1.75 2.17Zm-5.45-.21.1.46c-.89 0-1.84-.19-2.66.05-.82.24-1.79.76-2.2 1.45-1.4 2.37-3.57 3.51-6.32 3.03-.4-.07-.94-.14-1.24.06-1.01.67-2.02 1.39-2.87 2.24-.88.88-.96 3.01-.31 3.73.53.59 3.26.94 3.98.48 1.6-1.02 3.19-2.06 4.77-3.1.84-.55 1.6-1.26 2.5-1.65 1.87-.81 3.81-1.43 5.71-2.16 1.53-.59 2.68-1.66 3.05-3.26.5-2.13.15-2.7-2.02-2.56-.56.04-1.13.2-1.64.43-.34.15-.58.52-.87.79ZM98.39 166.03c.38-.79.63-1.68 1.17-2.35 1.25-1.57 1.37-3.08.18-4.7-.61-.83-.44-1.65.22-2.34.19-.2.74-.35.91-.22.66.46 1.2.16 1.81-.08 2.55-.99 4.98-.5 7.22.85 2.04 1.23 1.87 4.45-.19 5.6-2.08 1.16-3.03 2.99-3.14 5.29-.03.71-.18 1.14-.95 1.31-.59.13-1.14.43-1.69.68-1.13.51-2.27.33-3.1-.56-.68-.73-1.33-1.5-1.94-2.29-.22-.29-.3-.69-.51-1.18Zm2.01-7.62c1.38 1.72 1.39 3.53.14 5.1-1.4 1.76-1.19 3.1.22 4.69 1.24 1.39 3.48 1.61 4.73.21.13-.14.18-.39.2-.59.21-2.74 1.65-4.65 3.95-6.02.31-.19.65-.49.77-.82.44-1.22-.29-2.94-1.49-3.45-2.95-1.24-5.79-1.13-8.52.87ZM143.65 141.21c.64-.43 1.03-.42 1.41.29.22.42.63.87 1.06 1.01 1.38.47 2.82.75 4.21 1.21.95.31 2.01.62 2.74 1.25 1.09.94 1.75 2.27 2.03 3.72.28 1.5-.97 2.44-2.46 2.32-1.89-.15-2.78-.99-3.05-2.79-.16-1.04-1.09-1.45-1.98-1.56-1.62-.2-2.67-1.04-3.43-2.42-.17-.31-.7-.4-.99-.67-.19-.18-.27-.48-.4-.73.29-.12.68-.43.85-.33.36.19.64.56.88.91.8 1.16 1.77 2.06 3.19 2.37 1.51.33 2.58 1.09 2.94 2.73.24 1.07 2.17 1.82 3.1 1.25.28-.17.54-.85.42-1.13-.44-1.05-.95-2.1-1.63-3-.39-.52-1.12-.88-1.77-1.09-1.02-.33-2.09-.48-3.14-.68-1.66-.31-3.01-1.07-3.98-2.65ZM164.61 94.83l-8.74 4.2c1.07-.88 1.89-1.63 2.79-2.28 1.16-.84 2.37-1.61 3.57-2.38 1.15-.73 2.32-1.42 3.48-2.14.2-.12.36-.3.54-.45l-.16-.29c-1.15.59-2.39 1.05-3.45 1.78-2.44 1.69-4.76 3.55-7.19 5.26-.71.5-1.58.78-2.41 1.08-.17.06-.48-.28-.72-.43l-.03.04c2.78-1.96 5.41-4.21 8.39-5.81 2.64-1.42 5.52-2.62 8.77-2.58l-5.43 3.09c2.38-.61 4.48-2.11 7.07-1.8.17 1.07-1.78.75-1.15 1.96 2.05-.1 4.1-.19 6.14-.29v-.14h-3.95l-.09-.36c.24-.14.47-.39.71-.39 1.1-.02 2.23-.1 3.31.09 2.01.36 4.01.83 5.98 1.36 1.03.28 1.99.79 2.97 1.2 1.71.72 3.42 1.44 5.11 2.19.46.21.88.52 1.26.87-5.63-1.73-11.02-4.71-17.25-2.5l-.04-.32.7-.63-.05-.18c-2.18.55-4.36 1.13-6.55 1.64-.74.17-1.52.11-2.28.21-.52.07-1.03.31-1.55.37-.61.06-1.24-.1-1.83 0-.7.12-1.41.34-2.03.67-.61.33-1.12.85-1.67 1.28l-.22-.2c.2-.28.34-.64.61-.82 1.2-.78 2.44-1.5 3.66-2.25.57-.35 1.13-.73 1.69-1.09 1.61-.35 3.18-.8 4.62-1.58l-.19-.44c-1.47.68-2.94 1.36-4.42 2.04Zm13.12-.1 4.83.73c-1.37-1.1-2.89-1.2-4.83-.73Zm-13.59 1.58.13.33 2.35-.91-.16-.4-2.32.99Z"/><path d="M152.34 99.19c-.79.9-1.59 1.79-2.36 2.71-.5.6-.96.71-1.55-.08-.45.51-.86.98-1.27 1.45-.12.13-.22.3-.37.37-.8.36-1.6.7-2.53 1.09-.52-.41-.32-1.16-.38-1.95-.18-2.21 1.23-4.04 1.27-6.16 0-.11.16-.21.3-.39.55.59.98 1.03.64 1.96-.24.64-.05 1.45-.05 2.49 1.14-1.77 2.12-3.33 3.15-4.84.26-.38.71-.66 1.12-.87.16-.08.54.08.71.25.1.09.02.43-.05.63-.34.93-.71 1.84-1.07 2.76l.25.14a1603 1603 0 0 0 4.01-4.42l.17.15-4.95 6.24.35.3c1.82-3.08 4.46-5.28 7.7-7.01-.16.31-.26.7-.5.92-1.3 1.14-2.66 2.22-3.97 3.36-.28.25-.44.64-.66.96l.03-.04ZM136.09 112.83c.76-2.35 1.52-4.7 2.28-7.04-.31 2.5-1.12 4.85-1.99 7.17l-.29-.13ZM60.51 70.44l-.65 4.5-.15-.02.63-4.5.17.03ZM62.34 137.75l-.89-1.1-.88 2.34-.41-.13c.05-.27.02-.59.16-.81 1.27-2.04.3-3.9-.53-5.7-.26-.57-1.1-.87-1.74-1.35-.36 1.33 0 2.66.44 3.96.83 2.44 1.74 4.86 2.65 7.27.8 2.11 1.09 4.21.22 6.38-.12.3-.06.72.03 1.04.79 2.69 1.62 5.36 2.39 8.05.24.86.78 1.86-.64 2.4.37.52.73.95 1.01 1.44.13.23.1.56.14.84-.28-.02-.69.06-.83-.09-1.07-1.15-2.09-2.34-3.12-3.52-.53-.6-1.16-1.15-1.53-1.84-.3-.55-.41-1.29-.35-1.92.28-2.8.55-5.62 1.03-8.39.43-2.5-.05-4.82-.78-7.16-.2-.64-.33-1.31-.49-2-.98.85-.86 1.79-.53 2.85.57 1.87 1.03 3.77 1.53 5.66l-.42.26c-.2-.22-.52-.4-.58-.66-.93-3.56-1.89-7.12-2.71-10.71-.34-1.49-.55-3.06-.51-4.58.03-1.14.4-2.36.94-3.36.62-1.14 1.06-1.19 1.94-.41.24.22.51.4.76.61.22.18.42.38.66.6l.57-.98c.25.49.47.79.57 1.13.36 1.23.7 2.46 1.01 3.7.18.72.44 1.48.37 2.19-.13 1.2-.04 2.28.6 3.31.1.16.07.38.11.58l-.18.1Zm.44 20.65.3-.11-2.45-8.32-.28.08c-.25 3.09 1.08 5.72 2.42 8.35Zm-6.74-25.58.82 4.31c.73-1.62.33-3.05-.82-4.31Zm3.79 21.4c-.54 1.35 0 2.8 1.41 3.89l-1.41-3.89Zm1.21-7.68h.28c.11-1.18.31-2.39-.37-3.52l-.38.04.47 3.48Zm-4.75-18.31.38.28c1.07.05.36-.96.69-1.35l-.34-.2-.73 1.27ZM205.22 125.05c-.35.95-.72 1.9-1.06 2.86-.19.53-.3 1.1-.53 1.61-.06.15-.4.18-.6.26-.07-.21-.25-.45-.2-.63.18-.77.52-1.5.64-2.27.18-1.2.21-2.43.31-3.62-2.15 4.39-2.56 9.06-2.32 13.84l.28.03c0-.5-.03-.99.02-1.48.02-.21.21-.4.33-.6.21.15.54.27.6.46.15.51.23 1.05.25 1.58.09 2.72.41 5.47.13 8.15-.25 2.32-1.25 4.55-1.84 6.84-.26 1.02-.33 2.08-.5 3.13-.04.24-.12.48-.18.72-.22-.18-.56-.31-.65-.54-.16-.43-.17-.91-.25-1.4-.08-.03-.17-.07-.27-.09-1.65-.42-1.93-1.2-.68-2.32 1.48-1.33 1.56-2.96 1.34-4.72 0-.07 0-.16-.04-.21-1.71-2.07-.57-4.44-.68-6.67-.03-.72.06-1.45.1-2.17 1.02.22 1.23-.1 1.28-1.4.1-2.83.33-5.65.51-8.47.01-.18.11-.36.09-.53-.24-2.46.38-4.76 1.4-7.23-.38.19-.53.3-.7.34-.25.06-.51.06-.76.09 0-.23-.07-.48 0-.68.28-.74.6-1.47 1.04-2.51-.75.9-1.33 1.6-1.97 2.37-.45-1.12.41-1.59.9-2.15.51-.58 1.17-1.04 1.76-1.56.65-.57 1.39-.8 2.27-.75.88.05 1.76-.04 2.64-.09 1.71-.1 2.8.77 2.81 2.49 0 1.02-.25 2.06-.52 3.05-.66 2.38-1.29 4.78-2.14 7.1-.75 2.07-1.74 4.06-2.7 6.05-.14.29-.68.39-1.03.58.01-.35-.09-.76.05-1.05.69-1.42.97-2.88.92-4.48-.04-1.26.27-2.53.43-3.8l-.46-.13Zm4-8.92c-.39 1.49-.74 2.75-1.02 4.03-.05.23.14.62.34.77.14.11.59.03.73-.13.87-.9.91-3.28-.06-4.68Zm-4.31 4.01-.4-.04c-.09 1.72-.18 3.44-.27 5.29 1.84-1.7 1.13-3.49.67-5.25Zm1.41-.94c.75-1.07 1.37-1.95 2.06-2.94-1.89-.09-2.37.6-2.06 2.94Z"/></g></svg>